<?xml version="1.0" encoding="UTF-8" standalone="no"?>
<!DOCTYPE svg PUBLIC "-//W3C//DTD SVG 1.1//EN" "http://www.w3.org/Graphics/SVG/1.1/DTD/svg11.dtd">
<svg xmlns="http://www.w3.org/2000/svg" version="1.1" viewBox="0.00 0.00 321.00 327.00">
<g stroke-width="2.00" fill="none" stroke-linecap="butt">
<path stroke="#cecece" vector-effect="non-scaling-stroke" d="
  M 273.01 71.20
  A 4.96 4.96 0.0 0 0 268.05 66.24
  L 64.47 66.24
  A 4.96 4.96 0.0 0 0 59.51 71.20
  L 59.51 255.82
  A 4.96 4.96 0.0 0 0 64.47 260.78
  L 268.05 260.78
  A 4.96 4.96 0.0 0 0 273.01 255.82
  L 273.01 71.20"
/>
<path stroke="#cecece" vector-effect="non-scaling-stroke" d="
  M 56.05 248.98
  Q 56.71 204.05 56.06 159.17
  Q 56.06 158.61 55.50 158.63
  L 38.96 159.17
  A 0.54 0.54 0.0 0 0 38.45 159.81
  L 55.65 249.02
  Q 56.02 250.91 56.05 248.98"
/>
<path stroke="#cecece" vector-effect="non-scaling-stroke" d="
  M 262.32 250.50
  A 0.43 0.43 0.0 0 0 262.75 250.07
  L 262.75 76.91
  A 0.43 0.43 0.0 0 0 262.32 76.48
  L 70.18 76.51
  A 0.43 0.43 0.0 0 0 69.75 76.94
  L 69.76 250.07
  A 0.43 0.43 0.0 0 0 70.19 250.50
  L 262.32 250.50"
/>
<path stroke="#cecece" vector-effect="non-scaling-stroke" d="
  M 255.74 82.37
  A 2.36 2.36 0.0 0 0 253.38 80.01
  L 222.62 80.01
  A 2.36 2.36 0.0 0 0 220.26 82.37
  L 220.26 100.15
  A 2.36 2.36 0.0 0 0 222.62 102.51
  L 253.38 102.51
  A 2.36 2.36 0.0 0 0 255.74 100.15
  L 255.74 82.37"
/>
<path stroke="#cecece" vector-effect="non-scaling-stroke" d="
  M 255.72 112.36
  A 2.27 2.27 0.0 0 0 253.45 110.09
  L 76.05 110.09
  A 2.27 2.27 0.0 0 0 73.78 112.36
  L 73.78 130.56
  A 2.27 2.27 0.0 0 0 76.05 132.83
  L 253.45 132.83
  A 2.27 2.27 0.0 0 0 255.72 130.56
  L 255.72 112.36"
/>
<path stroke="#cecece" vector-effect="non-scaling-stroke" d="
  M 146.50 152.50
  A 3.53 3.53 0.0 0 0 142.97 148.97
  L 82.03 148.97
  A 3.53 3.53 0.0 0 0 78.50 152.50
  L 78.50 210.48
  A 3.53 3.53 0.0 0 0 82.03 214.01
  L 142.97 214.01
  A 3.53 3.53 0.0 0 0 146.50 210.48
  L 146.50 152.50"
/>
<path stroke="#cecece" vector-effect="non-scaling-stroke" d="
  M 255.66 154.35
  A 2.10 2.10 0.0 0 0 253.56 152.25
  L 161.08 152.25
  A 2.10 2.10 0.0 0 0 158.98 154.35
  L 158.98 155.41
  A 2.10 2.10 0.0 0 0 161.08 157.51
  L 253.56 157.51
  A 2.10 2.10 0.0 0 0 255.66 155.41
  L 255.66 154.35"
/>
<path stroke="#cecece" vector-effect="non-scaling-stroke" d="
  M 255.67 164.43
  A 2.18 2.18 0.0 0 0 253.49 162.25
  L 161.19 162.25
  A 2.18 2.18 0.0 0 0 159.01 164.43
  L 159.01 165.33
  A 2.18 2.18 0.0 0 0 161.19 167.51
  L 253.49 167.51
  A 2.18 2.18 0.0 0 0 255.67 165.33
  L 255.67 164.43"
/>
<path stroke="#cecece" vector-effect="non-scaling-stroke" d="
  M 255.66 174.62
  A 2.13 2.13 0.0 0 0 253.53 172.49
  L 161.13 172.49
  A 2.13 2.13 0.0 0 0 159.00 174.62
  L 159.00 175.62
  A 2.13 2.13 0.0 0 0 161.13 177.75
  L 253.53 177.75
  A 2.13 2.13 0.0 0 0 255.66 175.62
  L 255.66 174.62"
/>
<path stroke="#cecece" vector-effect="non-scaling-stroke" d="
  M 255.68 184.71
  A 2.23 2.23 0.0 0 0 253.45 182.48
  L 161.19 182.48
  A 2.23 2.23 0.0 0 0 158.96 184.71
  L 158.96 185.53
  A 2.23 2.23 0.0 0 0 161.19 187.76
  L 253.45 187.76
  A 2.23 2.23 0.0 0 0 255.68 185.53
  L 255.68 184.71"
/>
<path stroke="#cecece" vector-effect="non-scaling-stroke" d="
  M 255.65 194.61
  A 2.12 2.12 0.0 0 0 253.53 192.49
  L 161.13 192.49
  A 2.12 2.12 0.0 0 0 159.01 194.61
  L 159.01 195.63
  A 2.12 2.12 0.0 0 0 161.13 197.75
  L 253.53 197.75
  A 2.12 2.12 0.0 0 0 255.65 195.63
  L 255.65 194.61"
/>
<path stroke="#cecece" vector-effect="non-scaling-stroke" d="
  M 255.66 204.63
  A 2.13 2.13 0.0 0 0 253.53 202.50
  L 161.13 202.50
  A 2.13 2.13 0.0 0 0 159.00 204.63
  L 159.00 205.61
  A 2.13 2.13 0.0 0 0 161.13 207.74
  L 253.53 207.74
  A 2.13 2.13 0.0 0 0 255.66 205.61
  L 255.66 204.63"
/>
<path stroke="#cecece" vector-effect="non-scaling-stroke" d="
  M 255.68 230.05
  A 2.56 2.56 0.0 0 0 253.12 227.49
  L 82.50 227.49
  A 2.56 2.56 0.0 0 0 79.94 230.05
  L 79.94 230.51
  A 2.56 2.56 0.0 0 0 82.50 233.07
  L 253.12 233.07
  A 2.56 2.56 0.0 0 0 255.68 230.51
  L 255.68 230.05"
/>
<path stroke="#cecece" vector-effect="non-scaling-stroke" d="
  M 250.5004 85.7582
  A 0.51 0.51 0.0 0 0 249.9895 85.2491
  L 226.0096 85.2909
  A 0.51 0.51 0.0 0 0 225.5005 85.8018
  L 225.5196 96.7618
  A 0.51 0.51 0.0 0 0 226.0305 97.2709
  L 250.0104 97.2291
  A 0.51 0.51 0.0 0 0 250.5195 96.7182
  L 250.5004 85.7582"
/>
<path stroke="#cecece" vector-effect="non-scaling-stroke" d="
  M 250.50 115.86
  A 0.60 0.60 0.0 0 0 249.90 115.26
  L 79.56 115.26
  A 0.60 0.60 0.0 0 0 78.96 115.86
  L 78.96 126.88
  A 0.60 0.60 0.0 0 0 79.56 127.48
  L 249.90 127.48
  A 0.60 0.60 0.0 0 0 250.50 126.88
  L 250.50 115.86"
/>
<path stroke="#cecece" vector-effect="non-scaling-stroke" d="
  M 138.75 157.09
  A 0.28 0.28 0.0 0 0 138.47 156.81
  L 86.53 156.81
  A 0.28 0.28 0.0 0 0 86.25 157.09
  L 86.25 205.97
  A 0.28 0.28 0.0 0 0 86.53 206.25
  L 138.47 206.25
  A 0.28 0.28 0.0 0 0 138.75 205.97
  L 138.75 157.09"
/>
</g>
<path fill="#ffffff" d="
  M 0.00 0.00
  L 321.00 0.00
  L 321.00 327.00
  L 0.00 327.00
  L 0.00 0.00
  Z
  M 273.01 71.20
  A 4.96 4.96 0.0 0 0 268.05 66.24
  L 64.47 66.24
  A 4.96 4.96 0.0 0 0 59.51 71.20
  L 59.51 255.82
  A 4.96 4.96 0.0 0 0 64.47 260.78
  L 268.05 260.78
  A 4.96 4.96 0.0 0 0 273.01 255.82
  L 273.01 71.20
  Z
  M 56.05 248.98
  Q 56.71 204.05 56.06 159.17
  Q 56.06 158.61 55.50 158.63
  L 38.96 159.17
  A 0.54 0.54 0.0 0 0 38.45 159.81
  L 55.65 249.02
  Q 56.02 250.91 56.05 248.98
  Z"
/>
<path fill="#9d9d9d" d="
  M 273.01 255.82
  A 4.96 4.96 0.0 0 1 268.05 260.78
  L 64.47 260.78
  A 4.96 4.96 0.0 0 1 59.51 255.82
  L 59.51 71.20
  A 4.96 4.96 0.0 0 1 64.47 66.24
  L 268.05 66.24
  A 4.96 4.96 0.0 0 1 273.01 71.20
  L 273.01 255.82
  Z
  M 262.32 250.50
  A 0.43 0.43 0.0 0 0 262.75 250.07
  L 262.75 76.91
  A 0.43 0.43 0.0 0 0 262.32 76.48
  L 70.18 76.51
  A 0.43 0.43 0.0 0 0 69.75 76.94
  L 69.76 250.07
  A 0.43 0.43 0.0 0 0 70.19 250.50
  L 262.32 250.50
  Z"
/>
<path fill="#ffffff" d="
  M 262.32 250.50
  L 70.19 250.50
  A 0.43 0.43 0.0 0 1 69.76 250.07
  L 69.75 76.94
  A 0.43 0.43 0.0 0 1 70.18 76.51
  L 262.32 76.48
  A 0.43 0.43 0.0 0 1 262.75 76.91
  L 262.75 250.07
  A 0.43 0.43 0.0 0 1 262.32 250.50
  Z
  M 255.74 82.37
  A 2.36 2.36 0.0 0 0 253.38 80.01
  L 222.62 80.01
  A 2.36 2.36 0.0 0 0 220.26 82.37
  L 220.26 100.15
  A 2.36 2.36 0.0 0 0 222.62 102.51
  L 253.38 102.51
  A 2.36 2.36 0.0 0 0 255.74 100.15
  L 255.74 82.37
  Z
  M 255.72 112.36
  A 2.27 2.27 0.0 0 0 253.45 110.09
  L 76.05 110.09
  A 2.27 2.27 0.0 0 0 73.78 112.36
  L 73.78 130.56
  A 2.27 2.27 0.0 0 0 76.05 132.83
  L 253.45 132.83
  A 2.27 2.27 0.0 0 0 255.72 130.56
  L 255.72 112.36
  Z
  M 146.50 152.50
  A 3.53 3.53 0.0 0 0 142.97 148.97
  L 82.03 148.97
  A 3.53 3.53 0.0 0 0 78.50 152.50
  L 78.50 210.48
  A 3.53 3.53 0.0 0 0 82.03 214.01
  L 142.97 214.01
  A 3.53 3.53 0.0 0 0 146.50 210.48
  L 146.50 152.50
  Z
  M 255.66 154.35
  A 2.10 2.10 0.0 0 0 253.56 152.25
  L 161.08 152.25
  A 2.10 2.10 0.0 0 0 158.98 154.35
  L 158.98 155.41
  A 2.10 2.10 0.0 0 0 161.08 157.51
  L 253.56 157.51
  A 2.10 2.10 0.0 0 0 255.66 155.41
  L 255.66 154.35
  Z
  M 255.67 164.43
  A 2.18 2.18 0.0 0 0 253.49 162.25
  L 161.19 162.25
  A 2.18 2.18 0.0 0 0 159.01 164.43
  L 159.01 165.33
  A 2.18 2.18 0.0 0 0 161.19 167.51
  L 253.49 167.51
  A 2.18 2.18 0.0 0 0 255.67 165.33
  L 255.67 164.43
  Z
  M 255.66 174.62
  A 2.13 2.13 0.0 0 0 253.53 172.49
  L 161.13 172.49
  A 2.13 2.13 0.0 0 0 159.00 174.62
  L 159.00 175.62
  A 2.13 2.13 0.0 0 0 161.13 177.75
  L 253.53 177.75
  A 2.13 2.13 0.0 0 0 255.66 175.62
  L 255.66 174.62
  Z
  M 255.68 184.71
  A 2.23 2.23 0.0 0 0 253.45 182.48
  L 161.19 182.48
  A 2.23 2.23 0.0 0 0 158.96 184.71
  L 158.96 185.53
  A 2.23 2.23 0.0 0 0 161.19 187.76
  L 253.45 187.76
  A 2.23 2.23 0.0 0 0 255.68 185.53
  L 255.68 184.71
  Z
  M 255.65 194.61
  A 2.12 2.12 0.0 0 0 253.53 192.49
  L 161.13 192.49
  A 2.12 2.12 0.0 0 0 159.01 194.61
  L 159.01 195.63
  A 2.12 2.12 0.0 0 0 161.13 197.75
  L 253.53 197.75
  A 2.12 2.12 0.0 0 0 255.65 195.63
  L 255.65 194.61
  Z
  M 255.66 204.63
  A 2.13 2.13 0.0 0 0 253.53 202.50
  L 161.13 202.50
  A 2.13 2.13 0.0 0 0 159.00 204.63
  L 159.00 205.61
  A 2.13 2.13 0.0 0 0 161.13 207.74
  L 253.53 207.74
  A 2.13 2.13 0.0 0 0 255.66 205.61
  L 255.66 204.63
  Z
  M 255.68 230.05
  A 2.56 2.56 0.0 0 0 253.12 227.49
  L 82.50 227.49
  A 2.56 2.56 0.0 0 0 79.94 230.05
  L 79.94 230.51
  A 2.56 2.56 0.0 0 0 82.50 233.07
  L 253.12 233.07
  A 2.56 2.56 0.0 0 0 255.68 230.51
  L 255.68 230.05
  Z"
/>
<path fill="#9d9d9d" d="
  M 255.74 100.15
  A 2.36 2.36 0.0 0 1 253.38 102.51
  L 222.62 102.51
  A 2.36 2.36 0.0 0 1 220.26 100.15
  L 220.26 82.37
  A 2.36 2.36 0.0 0 1 222.62 80.01
  L 253.38 80.01
  A 2.36 2.36 0.0 0 1 255.74 82.37
  L 255.74 100.15
  Z
  M 250.5004 85.7582
  A 0.51 0.51 0.0 0 0 249.9895 85.2491
  L 226.0096 85.2909
  A 0.51 0.51 0.0 0 0 225.5005 85.8018
  L 225.5196 96.7618
  A 0.51 0.51 0.0 0 0 226.0305 97.2709
  L 250.0104 97.2291
  A 0.51 0.51 0.0 0 0 250.5195 96.7182
  L 250.5004 85.7582
  Z"
/>
<rect fill="#ffffff" x="-12.50" y="-5.99" transform="translate(238.01,91.26) rotate(-0.1)" width="25.00" height="11.98" rx="0.51"/>
<path fill="#9d9d9d" d="
  M 255.72 130.56
  A 2.27 2.27 0.0 0 1 253.45 132.83
  L 76.05 132.83
  A 2.27 2.27 0.0 0 1 73.78 130.56
  L 73.78 112.36
  A 2.27 2.27 0.0 0 1 76.05 110.09
  L 253.45 110.09
  A 2.27 2.27 0.0 0 1 255.72 112.36
  L 255.72 130.56
  Z
  M 250.50 115.86
  A 0.60 0.60 0.0 0 0 249.90 115.26
  L 79.56 115.26
  A 0.60 0.60 0.0 0 0 78.96 115.86
  L 78.96 126.88
  A 0.60 0.60 0.0 0 0 79.56 127.48
  L 249.90 127.48
  A 0.60 0.60 0.0 0 0 250.50 126.88
  L 250.50 115.86
  Z"
/>
<rect fill="#ffffff" x="78.96" y="115.26" width="171.54" height="12.22" rx="0.60"/>
<path fill="#9d9d9d" d="
  M 146.50 210.48
  A 3.53 3.53 0.0 0 1 142.97 214.01
  L 82.03 214.01
  A 3.53 3.53 0.0 0 1 78.50 210.48
  L 78.50 152.50
  A 3.53 3.53 0.0 0 1 82.03 148.97
  L 142.97 148.97
  A 3.53 3.53 0.0 0 1 146.50 152.50
  L 146.50 210.48
  Z
  M 138.75 157.09
  A 0.28 0.28 0.0 0 0 138.47 156.81
  L 86.53 156.81
  A 0.28 0.28 0.0 0 0 86.25 157.09
  L 86.25 205.97
  A 0.28 0.28 0.0 0 0 86.53 206.25
  L 138.47 206.25
  A 0.28 0.28 0.0 0 0 138.75 205.97
  L 138.75 157.09
  Z"
/>
<rect fill="#9d9d9d" x="158.98" y="152.25" width="96.68" height="5.26" rx="2.10"/>
<rect fill="#ffffff" x="86.25" y="156.81" width="52.50" height="49.44" rx="0.28"/>
<path fill="#9d9d9d" d="
  M 55.65 249.02
  L 38.45 159.81
  A 0.54 0.54 0.0 0 1 38.96 159.17
  L 55.50 158.63
  Q 56.06 158.61 56.06 159.17
  Q 56.71 204.05 56.05 248.98
  Q 56.02 250.91 55.65 249.02
  Z"
/>
<rect fill="#9d9d9d" x="159.01" y="162.25" width="96.66" height="5.26" rx="2.18"/>
<rect fill="#9d9d9d" x="159.00" y="172.49" width="96.66" height="5.26" rx="2.13"/>
<rect fill="#9d9d9d" x="158.96" y="182.48" width="96.72" height="5.28" rx="2.23"/>
<rect fill="#9d9d9d" x="159.01" y="192.49" width="96.64" height="5.26" rx="2.12"/>
<rect fill="#9d9d9d" x="159.00" y="202.50" width="96.66" height="5.24" rx="2.13"/>
<rect fill="#9d9d9d" x="79.94" y="227.49" width="175.74" height="5.58" rx="2.56"/>
</svg>
