<?xml version="1.0" encoding="UTF-8" standalone="no"?><!DOCTYPE svg PUBLIC "-//W3C//DTD SVG 1.1//EN" "http://www.w3.org/Graphics/SVG/1.1/DTD/svg11.dtd"><svg xmlns="http://www.w3.org/2000/svg" version="1.1" viewBox="0.00 0.00 529.00 520.00"><g stroke-width="2.00" fill="none" stroke-linecap="butt"><path stroke="#f7cfd2" vector-effect="non-scaling-stroke" d=" M 210.98 120.40 C 204.20 116.73 200.66 120.66 198.92 126.82"/><path stroke="#fff4f3" vector-effect="non-scaling-stroke" d=" M 198.92 126.82 C 196.95 130.65 197.05 134.17 192.57 136.73 Q 191.35 137.43 190.28 138.40 Q 189.93 138.72 189.46 138.64 Q 188.79 138.53 188.51 138.76 C 181.71 144.43 176.03 148.58 168.96 156.14 Q 166.48 158.79 164.95 162.02 C 163.10 165.89 159.93 170.96 160.92 175.27 C 162.32 181.42 165.39 184.95 171.14 188.22 C 175.98 190.97 184.23 196.22 185.03 202.11 Q 185.74 207.32 181.71 211.25 C 170.99 221.70 160.08 229.54 145.97 235.71 Q 138.71 238.88 131.53 243.91 C 127.21 246.94 121.93 249.71 117.54 253.31 C 114.10 256.13 110.18 257.58 106.62 260.34 C 102.69 263.39 100.41 265.06 97.17 267.29 C 93.94 269.51 90.93 273.13 88.14 274.90 Q 85.06 276.86 83.31 278.38 C 81.45 280.00 78.51 281.64 77.41 283.16 C 72.42 290.04 65.56 296.44 60.50 304.25 C 57.99 308.13 56.45 312.47 54.79 316.85 C 52.47 322.92 51.59 329.31 50.34 335.75 Q 49.58 339.68 50.28 352.25 Q 50.58 357.74 53.15 368.86 C 55.76 380.11 59.29 388.64 65.26 397.75 C 67.82 401.66 71.46 404.19 75.06 407.18 Q 75.44 407.49 75.93 407.51 Q 76.59 407.54 77.20 407.32 A 1.01 0.98 45.8 0 1 77.92 407.34 Q 78.89 407.77 78.82 408.22"/><path stroke="#bbc8ec" vector-effect="non-scaling-stroke" d=" M 78.82 408.22 Q 74.40 412.94 66.50 412.39 C 57.08 411.73 47.62 409.57 38.69 414.26 C 33.06 417.22 24.05 423.54 23.95 430.74 C 23.81 439.61 34.30 442.23 41.25 442.36 Q 51.13 442.53 60.99 442.58 Q 66.63 442.61 70.52 446.39 C 75.73 451.46 73.76 459.97 82.98 461.86 C 95.77 464.48 104.16 457.51 115.91 455.27 Q 139.71 450.72 160.00 465.83"/><path stroke="#eff2f6" vector-effect="non-scaling-stroke" d=" M 160.00 465.83 Q 145.49 463.57 137.00 464.04 Q 130.35 464.41 123.76 465.25 C 119.31 465.82 109.23 469.51 113.20 476.11 C 117.02 482.47 139.92 482.66 147.50 482.86 Q 162.42 483.25 177.24 485.01 C 184.97 485.93 195.87 487.97 199.39 494.38 C 202.62 500.28 204.65 504.35 210.62 507.63 C 227.92 517.13 250.87 517.61 269.84 513.99 Q 277.36 512.55 284.92 511.28 C 294.75 509.62 303.42 507.78 312.64 505.83 Q 317.90 504.72 323.89 504.21 C 344.72 502.47 367.41 500.72 389.62 503.05 Q 399.49 504.08 409.35 505.24 C 415.24 505.93 423.53 506.46 428.00 505.01 C 430.57 504.18 436.57 501.74 437.05 498.75 C 438.35 490.67 422.19 483.59 418.08 476.76 Q 417.82 476.34 418.01 475.88 Q 419.20 472.92 422.24 472.51 C 433.58 470.99 445.57 477.16 456.42 472.66 C 459.09 471.55 458.02 467.73 455.52 467.12 C 452.92 466.49 450.36 465.61 447.79 465.25 Q 439.16 464.03 430.48 463.18 Q 426.61 462.79 422.29 462.04"/><path stroke="#bbc8ec" vector-effect="non-scaling-stroke" d=" M 422.29 462.04 Q 434.05 451.52 443.44 445.91 C 459.06 436.59 472.84 430.08 487.81 422.55 C 498.18 417.34 507.78 411.61 515.51 402.77 C 523.36 393.79 529.88 376.32 516.54 368.67 Q 509.82 364.81 499.47 364.77"/><path stroke="#fff4f3" vector-effect="non-scaling-stroke" d=" M 499.47 364.77 Q 500.45 362.62 501.92 360.60 Q 503.98 357.78 504.63 356.65 C 510.82 345.73 513.84 336.13 516.55 323.82 Q 517.71 318.58 517.79 313.06 Q 517.96 300.36 517.78 287.65 C 517.72 283.47 516.90 279.36 516.34 275.17 C 513.66 254.98 498.69 239.22 481.10 230.63 Q 462.02 221.31 454.52 218.77 Q 450.02 217.25 446.90 215.86 C 438.87 212.29 430.12 209.12 423.51 204.02 C 414.04 196.71 402.67 188.20 401.49 175.81 C 400.96 170.28 403.10 165.27 404.61 160.22 C 405.36 157.71 410.55 153.45 412.42 149.40 Q 413.32 147.47 414.47 145.78 Q 419.75 138.06 423.20 129.36 C 424.31 126.57 424.47 123.58 424.82 120.60 C 425.60 113.88 424.91 107.91 422.01 101.85 C 418.68 94.93 411.77 91.90 405.33 88.75 Q 402.27 87.25 399.11 86.66 C 387.29 84.44 375.67 84.05 363.37 84.43 C 357.96 84.60 350.35 85.63 343.71 85.55 Q 343.16 85.54 342.79 85.94 Q 340.69 88.24 339.13 92.48"/><path stroke="#82859c" vector-effect="non-scaling-stroke" d=" M 339.13 92.48 L 338.51 88.40 Q 338.43 87.89 338.74 87.49 C 346.17 77.76 347.42 66.69 339.77 57.03 C 338.05 54.86 335.58 53.08 333.36 51.21 C 325.73 44.79 322.58 37.57 313.46 32.89 Q 313.02 32.66 312.81 32.20 Q 307.30 19.81 295.26 15.72 C 273.38 8.30 241.25 11.58 226.66 31.95 C 222.08 38.33 216.74 50.39 209.39 57.68 C 203.27 63.74 198.01 69.81 195.35 77.75 C 192.02 87.71 193.05 97.06 203.99 101.12 Q 204.46 101.29 204.54 101.79 Q 206.19 111.36 210.98 120.40"/><path stroke="#827990" vector-effect="non-scaling-stroke" d=" M 339.13 92.48 Q 339.54 99.75 337.81 107.93"/><path stroke="#7a556f" vector-effect="non-scaling-stroke" d=" M 337.81 107.93 C 334.29 110.63 334.15 113.57 332.38 116.75 Q 330.74 119.68 330.39 116.34 C 329.93 111.99 327.71 107.84 326.91 103.51 C 325.78 97.47 325.92 90.07 325.64 83.45 C 325.45 78.86 323.77 76.52 319.75 73.90 C 314.38 70.42 311.55 66.86 308.24 60.78 C 305.23 55.23 303.33 51.75 299.03 47.77 Q 298.68 47.45 298.24 47.63 Q 294.92 49.01 292.75 49.29 C 284.27 50.36 273.32 49.72 264.24 51.94 Q 260.81 52.78 256.17 54.97"/><path stroke="#77455f" vector-effect="non-scaling-stroke" d=" M 256.17 54.97 Q 250.46 59.91 245.14 64.91 C 241.07 68.73 235.44 68.81 231.95 72.79 Q 229.64 75.42 228.63 77.46 Q 225.18 84.40 220.76 90.82 Q 220.46 91.27 220.72 91.74 Q 221.49 93.12 221.72 94.50"/><path stroke="#7a556f" vector-effect="non-scaling-stroke" d=" M 221.72 94.50 C 223.18 99.86 223.70 105.72 222.24 111.15 C 221.21 114.96 219.45 118.63 220.22 122.50 C 220.85 125.68 222.33 130.03 219.52 131.40 Q 219.03 131.65 218.54 131.39 C 214.59 129.31 212.89 124.23 210.98 120.40"/><path stroke="#bbbce0" vector-effect="non-scaling-stroke" d=" M 499.47 364.77 Q 485.48 364.31 473.09 370.60 Q 452.99 380.80 436.68 399.44"/><path stroke="#f7c4c6" vector-effect="non-scaling-stroke" d=" M 436.68 399.44 L 439.73 378.96"/><path stroke="#fff4f3" vector-effect="non-scaling-stroke" d=" M 439.73 378.96 Q 445.29 373.73 446.47 371.46 C 449.33 365.93 453.35 361.30 456.27 356.04 Q 462.12 345.51 470.19 336.51 C 471.77 334.75 472.91 332.51 474.50 330.60 Q 476.67 328.01 477.86 326.30 C 480.22 322.93 483.47 319.78 485.78 316.99 C 491.52 310.04 496.85 305.29 503.32 296.68 C 507.08 291.67 507.90 287.71 509.03 281.79 Q 509.59 278.89 508.91 276.73 C 506.14 267.80 495.69 263.82 487.22 265.86 Q 482.67 266.95 480.72 267.28 C 474.89 268.27 469.66 270.91 464.12 273.84 C 457.10 277.55 451.58 282.98 445.86 288.42 C 445.26 288.99 444.82 289.78 444.11 290.38 Q 443.72 290.70 443.68 291.20 L 443.59 292.30"/><path stroke="#f9d39e" vector-effect="non-scaling-stroke" d=" M 443.59 292.30 Q 442.90 289.73 442.41 287.11 C 441.56 282.55 440.39 278.41 439.33 274.07 C 431.58 242.27 388.92 225.40 360.23 217.02 Q 356.88 216.05 353.46 215.49 Q 351.37 215.15 349.46 214.43 Q 347.08 213.52 345.50 213.16 Q 340.11 211.92 332.78 210.93"/><path stroke="#f7c4c6" vector-effect="non-scaling-stroke" d=" M 332.78 210.93 C 323.24 208.10 316.04 206.60 311.52 198.19"/><path stroke="#f4b4b6" vector-effect="non-scaling-stroke" d=" M 311.52 198.19 C 307.57 192.27 306.17 185.57 305.68 178.35"/><path stroke="#f7c4c6" vector-effect="non-scaling-stroke" d=" M 337.81 107.93 Q 341.46 105.11 345.05 106.33 C 351.92 108.67 351.84 119.76 349.93 125.22 Q 345.32 138.36 332.01 141.19 A 1.89 1.88 2.7 0 0 330.61 142.46 C 328.67 148.63 326.00 154.03 321.71 159.15 Q 314.63 167.59 306.10 174.65 Q 305.72 174.97 305.71 175.47 L 305.68 178.35"/><path stroke="#ec8f95" vector-effect="non-scaling-stroke" d=" M 305.68 178.35 L 305.26 175.95 A 0.63 0.62 63.6 0 0 304.22 175.60 C 302.64 177.08 300.69 176.96 299.28 177.84 Q 298.01 178.64 296.87 179.91 A 0.82 0.82 0.0 0 1 295.48 179.61 C 292.09 168.81 286.61 161.02 275.63 157.32 C 271.32 155.87 267.76 156.66 264.15 159.08 Q 262.85 159.95 260.56 160.97 C 256.59 162.75 255.35 168.10 260.25 170.01 C 261.95 170.68 266.01 169.86 267.91 169.81 C 270.91 169.72 274.30 170.16 275.61 172.63 Q 277.63 176.41 279.49 180.20 Q 279.82 180.88 279.10 180.70 C 273.17 179.26 262.87 177.11 258.46 183.04"/><path stroke="#f7c4c6" vector-effect="non-scaling-stroke" d=" M 258.46 183.04 C 259.09 181.47 259.00 180.37 257.29 179.65 C 249.22 176.22 242.31 171.25 234.78 165.71 Q 231.81 163.52 226.15 156.21 C 225.36 155.18 224.77 153.45 223.56 152.36 Q 223.17 152.00 222.64 152.03 Q 216.84 152.34 211.83 149.66 Q 198.18 142.37 198.92 126.82"/><path stroke="#ec8f95" vector-effect="non-scaling-stroke" d=" M 221.72 94.50 Q 222.44 93.79 223.07 94.31 Q 223.37 94.57 223.55 94.21 C 223.88 93.54 223.90 92.95 224.28 92.33 Q 228.26 85.62 232.22 78.90 C 235.46 73.40 239.47 74.94 243.73 71.71 Q 248.38 68.18 251.91 63.53 Q 252.13 63.25 252.10 62.88 A 0.72 0.72 0.0 0 1 252.33 62.31 Q 255.49 59.20 256.17 54.97"/><path stroke="#aabbe3" vector-effect="non-scaling-stroke" d=" M 422.29 462.04 Q 417.29 461.85 411.89 461.80 Q 411.75 461.80 406.62 461.57 Q 402.81 461.40 399.01 462.10 Q 398.65 462.17 398.55 461.99 Q 398.44 461.81 398.42 461.44"/><path stroke="#bbc8ec" vector-effect="non-scaling-stroke" d=" M 398.42 461.44 L 406.63 442.59"/><path stroke="#ec8f95" vector-effect="non-scaling-stroke" d=" M 311.52 198.19 Q 310.80 198.91 308.96 197.41 A 1.63 1.56 66.0 0 0 308.08 197.05 Q 304.70 196.77 301.93 194.88 A 0.35 0.35 0.0 0 0 301.40 195.30 L 313.66 226.67 A 0.45 0.45 0.0 0 1 313.40 227.25 L 313.10 227.36 Q 312.86 227.45 312.77 227.22 Q 307.02 211.58 300.11 196.38 Q 298.15 192.09 293.13 176.68 C 291.33 171.14 286.38 164.27 281.04 161.67 C 277.37 159.88 272.82 157.15 268.61 158.78 C 265.75 159.89 258.95 162.63 258.16 165.57 A 1.27 1.27 0.0 0 0 258.26 166.49 C 259.50 168.88 261.55 169.12 264.16 168.61 C 276.01 166.30 277.13 171.87 281.39 180.59 Q 281.65 181.11 282.18 181.33 L 283.74 181.99 Q 284.05 182.13 283.94 182.45 L 283.85 182.71 Q 283.68 183.20 283.18 183.09 C 279.09 182.23 264.20 178.90 261.27 182.35 C 257.48 186.81 251.99 194.26 253.05 200.44 A 1.09 1.09 0.0 0 0 255.03 200.87 C 260.19 193.30 271.25 191.99 279.58 193.69 A 0.42 0.42 0.0 0 1 279.89 194.25 L 279.75 194.59 Q 279.49 195.24 278.81 195.08 C 270.53 193.15 263.09 194.46 257.31 199.82 Q 255.52 201.47 254.90 203.57 Q 254.24 205.81 253.96 208.10 A 0.50 0.49 -89.9 0 1 253.54 208.53 L 253.29 208.57 Q 252.75 208.65 252.73 208.11 L 252.67 205.89"/><path stroke="#f0ae7d" vector-effect="non-scaling-stroke" d=" M 332.78 210.93 L 328.05 211.75 A 1.17 1.13 17.1 0 0 327.42 212.07 C 324.25 215.22 322.80 219.45 318.92 221.91 Q 317.97 222.51 317.09 223.28 A 1.04 1.04 0.0 0 0 316.76 223.85 L 315.54 230.36 Q 315.45 230.85 315.59 231.33 Q 317.18 236.72 317.88 238.13 Q 334.05 270.69 353.86 301.17 Q 355.27 303.35 357.07 307.18 C 358.27 309.75 360.70 312.35 362.08 314.49 Q 366.30 321.00 370.29 327.64 Q 370.87 328.60 371.55 329.50 Q 376.59 336.25 381.71 342.95 Q 382.24 343.65 383.08 345.17 Q 383.75 346.39 384.63 347.32"/><path stroke="#ec8f95" vector-effect="non-scaling-stroke" d=" M 384.63 347.32 Q 393.93 364.91 406.44 380.63 A 0.35 0.35 0.0 0 0 407.06 380.45 Q 407.17 379.22 406.78 378.07 Q 406.63 377.63 406.65 377.16 Q 406.72 375.95 406.08 374.76 C 405.01 372.74 404.29 370.20 404.10 367.65 C 403.57 360.82 402.49 354.04 402.60 347.37 Q 402.75 338.59 403.13 329.88"/><path stroke="#f0ae7d" vector-effect="non-scaling-stroke" d=" M 403.13 329.88 Q 423.56 330.76 444.22 329.22"/><path stroke="#f7cfd2" vector-effect="non-scaling-stroke" d=" M 444.22 329.22 L 443.81 329.41 Q 443.39 329.60 443.35 330.07 L 439.73 378.96"/><path stroke="#b298bf" vector-effect="non-scaling-stroke" d=" M 436.68 399.44 Q 434.04 410.17 432.68 413.94 C 428.71 424.92 423.18 433.62 412.57 439.16 Q 409.44 440.80 406.63 442.59"/><path stroke="#f7cfd2" vector-effect="non-scaling-stroke" d=" M 406.63 442.59 Q 406.68 442.37 406.62 442.23 Q 406.47 441.85 406.10 442.00 C 401.60 443.80 394.98 443.80 389.81 443.02 A 0.61 0.61 0.0 0 0 389.13 443.48 L 384.37 463.60"/><path stroke="#e6c2c9" vector-effect="non-scaling-stroke" d=" M 384.37 463.60 Q 383.59 464.61 381.30 464.60"/><path stroke="#f0ae7d" vector-effect="non-scaling-stroke" d=" M 381.30 464.60 Q 382.30 463.86 382.04 463.54"/><path stroke="#f0a17e" vector-effect="non-scaling-stroke" d=" M 382.04 463.54 Q 382.95 463.11 382.78 462.50 Q 381.82 458.92 383.09 458.21"/><path stroke="#f7cfd2" vector-effect="non-scaling-stroke" d=" M 383.09 458.21 Q 386.34 450.72 387.26 444.03 A 1.86 1.86 0.0 0 0 385.78 441.95 Q 383.23 441.45 383.39 441.98"/><path stroke="#f0a17e" vector-effect="non-scaling-stroke" d=" M 383.39 441.98 Q 377.19 438.45 371.03 434.73 Q 366.04 431.72 362.01 428.07 Q 357.79 424.26 353.84 420.32"/><path stroke="#ec8f95" vector-effect="non-scaling-stroke" d=" M 353.84 420.32 C 351.85 417.52 349.65 414.95 348.04 412.04 Q 339.19 396.12 332.19 379.29 Q 331.41 377.41 328.91 375.24 Q 328.52 374.90 328.40 374.39 Q 327.75 371.69 327.18 368.97 C 326.32 364.84 324.86 361.20 323.33 357.40"/><path stroke="#f0ae7d" vector-effect="non-scaling-stroke" d=" M 323.33 357.40 Q 322.56 356.12 322.38 354.40 Q 322.34 353.93 322.04 353.58 Q 320.37 351.59 320.12 348.96 Q 320.08 348.53 319.81 348.20 Q 318.86 347.07 317.95 345.94 Q 316.90 344.63 316.45 342.94 C 314.60 335.85 312.23 328.75 309.96 321.81 Q 308.17 316.34 305.64 311.20 C 305.12 310.15 303.83 308.66 303.52 307.02 Q 302.81 303.31 302.13 299.62 C 301.40 295.66 299.65 292.05 298.37 288.18 Q 293.57 273.69 288.79 259.19 C 286.53 252.32 282.30 247.53 276.82 241.76 Q 275.83 240.72 274.34 239.98 Q 272.94 239.30 271.60 238.49 C 270.06 237.56 268.87 237.68 267.19 237.42 C 265.41 237.15 263.46 236.24 261.49 235.83 Q 260.15 235.54 259.20 234.95 Q 253.78 231.57 248.61 227.79 C 246.27 226.08 244.18 223.11 242.41 220.77 Q 241.00 218.89 238.48 218.74 A 1.02 1.00 74.3 0 1 237.71 218.30 L 236.77 216.86"/><path stroke="#f9deaa" vector-effect="non-scaling-stroke" d=" M 443.59 292.30 C 445.21 301.13 447.36 311.37 447.24 320.34 Q 447.23 321.59 448.10 320.69 Q 451.51 317.12 455.11 313.09 C 464.79 302.26 474.89 292.87 486.94 284.69 Q 487.29 284.45 487.54 284.80 L 487.68 285.03 Q 487.78 285.17 487.64 285.27 C 472.97 294.99 460.14 307.91 449.09 321.52 C 447.42 323.58 448.28 326.40 448.54 328.80 A 0.71 0.71 0.0 0 1 447.76 329.58 L 444.22 329.22"/><path stroke="#ee9e6d" vector-effect="non-scaling-stroke" d=" M 403.13 329.88 L 388.37 329.85 A 1.77 1.77 0.0 0 1 386.60 328.04 Q 386.91 313.57 387.88 299.48 Q 389.08 282.10 390.52 264.74 Q 390.67 262.96 390.65 261.18 Q 390.65 261.12 390.58 261.12 Q 390.55 261.12 390.53 261.12 Q 390.41 261.12 390.40 261.24 C 388.89 272.60 388.29 284.04 387.71 295.47 C 387.30 303.56 386.44 312.85 386.09 321.57 C 386.01 323.56 385.44 326.65 385.74 329.30 Q 386.09 332.33 385.84 334.20 Q 384.96 340.63 384.63 347.32"/><path stroke="#f4b4b6" vector-effect="non-scaling-stroke" d=" M 258.46 183.04 C 254.97 188.23 251.77 192.62 251.53 197.52 C 251.40 200.27 252.93 202.73 252.67 205.89"/><path stroke="#f7c4c6" vector-effect="non-scaling-stroke" d=" M 252.67 205.89 L 252.32 207.84 Q 252.23 208.34 251.82 208.61 Q 244.66 213.41 236.77 216.86"/><path stroke="#f9d39e" vector-effect="non-scaling-stroke" d=" M 236.77 216.86 Q 221.08 223.35 205.52 230.04 C 193.11 235.38 184.61 242.18 176.23 251.49 C 173.80 254.19 171.80 257.58 169.59 260.67 Q 166.76 264.61 165.21 267.92 Q 157.44 284.40 153.43 302.24 Q 148.86 322.59 146.09 343.06 A 0.85 0.85 0.0 0 0 147.18 343.99 Q 148.87 343.49 150.75 343.21 Q 152.14 343.00 151.83 344.71"/><path stroke="#f4b4b6" vector-effect="non-scaling-stroke" d=" M 151.83 344.71 L 151.75 348.04"/><path stroke="#f7c4c6" vector-effect="non-scaling-stroke" d=" M 151.75 348.04 Q 151.90 369.80 153.61 379.00 Q 154.77 385.28 156.15 392.15"/><path stroke="#fff4f3" vector-effect="non-scaling-stroke" d=" M 156.15 392.15 Q 150.88 390.69 147.99 389.61 C 145.50 388.69 139.17 386.10 137.75 383.53 Q 134.32 377.34 129.92 371.83 C 126.03 366.95 123.00 360.71 117.70 357.11 C 114.20 354.73 111.00 351.78 107.32 350.63 C 101.68 348.87 93.86 348.85 89.47 353.47 Q 87.48 355.56 85.84 357.92 C 84.19 360.29 84.16 363.20 83.11 365.91 A 2.92 2.92 0.0 0 0 83.49 368.72 Q 85.00 370.75 86.17 373.34 C 87.18 375.55 88.53 376.22 90.35 377.52 C 95.26 381.02 99.78 385.43 104.45 389.29 C 107.55 391.85 108.00 393.32 109.32 396.95 C 110.30 399.65 110.54 400.58 108.51 402.96 Q 106.81 404.96 106.24 407.33"/><path stroke="#bbbce0" vector-effect="non-scaling-stroke" d=" M 106.24 407.33 C 103.41 405.94 100.59 404.30 97.80 403.49 Q 86.81 400.30 78.82 408.22"/><path stroke="#eff2f6" vector-effect="non-scaling-stroke" d=" M 398.42 461.44 L 398.03 462.02 Q 397.78 462.41 397.31 462.45 L 384.37 463.60"/><path stroke="#f9d1ab" vector-effect="non-scaling-stroke" d=" M 383.39 441.98 L 383.09 458.21"/><path stroke="#f2b056" vector-effect="non-scaling-stroke" d=" M 382.04 463.54 Q 381.77 463.36 381.68 463.10 Q 381.54 462.72 381.14 462.63 C 379.11 462.22 377.79 460.90 375.88 460.37 Q 373.07 459.61 371.69 458.35 Q 363.62 451.00 355.34 443.91 Q 347.38 437.10 341.71 425.05"/><path stroke="#ee9e6d" vector-effect="non-scaling-stroke" d=" M 323.33 357.40 L 327.74 374.96 Q 327.87 375.46 327.38 375.61 L 318.38 378.40"/><path stroke="#f0ae7d" vector-effect="non-scaling-stroke" d=" M 318.38 378.40 Q 308.70 381.48 299.14 382.67 C 298.19 382.79 297.49 383.25 296.60 383.35 C 289.82 384.13 282.45 385.74 276.44 386.52 Q 261.92 388.40 253.50 389.36 C 252.34 389.49 251.03 389.18 249.83 389.29 C 240.21 390.20 230.49 390.73 221.75 385.87 C 217.97 383.77 216.21 378.03 215.34 374.08 C 213.10 363.89 211.41 353.57 208.90 343.45"/><path stroke="#ee9e6d" vector-effect="non-scaling-stroke" d=" M 208.90 343.45 C 209.54 336.36 207.50 329.45 206.17 322.54 Q 205.20 317.49 204.45 312.40 C 204.01 309.42 203.13 306.11 202.71 302.86 Q 202.16 298.55 201.63 295.70 Q 200.29 288.50 200.06 280.57 A 0.26 0.26 0.0 0 0 199.62 280.39 Q 199.13 280.85 199.22 281.77 Q 199.46 284.13 199.77 286.48 Q 201.06 296.38 202.75 306.23 Q 203.78 312.21 204.37 318.25 C 204.67 321.24 205.96 325.09 206.41 328.64 Q 207.11 334.15 208.38 339.64 A 1.33 1.33 0.0 0 1 206.74 341.22 C 205.01 340.76 203.15 341.51 201.74 341.60 Q 189.82 342.36 177.91 343.17 C 174.77 343.38 170.85 342.69 168.25 342.99 Q 161.02 343.84 152.50 343.56 Q 151.80 343.54 151.83 344.71"/><path stroke="#ee916e" vector-effect="non-scaling-stroke" d=" M 353.84 420.32 Q 353.40 421.79 351.71 421.28 C 350.00 420.76 348.92 420.74 347.50 421.47 Q 344.60 422.96 341.71 425.05"/><path stroke="#ee9e6d" vector-effect="non-scaling-stroke" d=" M 341.71 425.05 Q 339.76 425.71 339.06 426.52"/><path stroke="#e8d1a1" vector-effect="non-scaling-stroke" d=" M 381.30 464.60 Q 367.27 468.24 352.97 470.85 Q 341.08 473.03 324.75 473.72 Q 286.02 475.35 251.66 472.36 Q 234.76 470.89 217.79 470.58 Q 217.61 470.58 217.49 470.48 Q 217.37 470.39 217.25 470.27"/><path stroke="#f9deaa" vector-effect="non-scaling-stroke" d=" M 217.04 462.54 L 217.25 470.27"/><path stroke="#eff2f6" vector-effect="non-scaling-stroke" d=" M 217.25 470.27 Q 216.76 470.83 216.50 470.81 Q 203.19 469.83 190.57 469.13"/><path stroke="#bbc8ec" vector-effect="non-scaling-stroke" d=" M 190.57 469.13 C 164.56 431.26 135.46 396.24 102.26 364.57 Q 101.73 364.06 101.57 364.78 L 101.48 365.18 A 0.13 0.12 -63.8 0 0 101.52 365.31 Q 148.17 409.98 184.13 462.11 Q 187.16 466.50 188.31 467.93"/><path stroke="#eff2f6" vector-effect="non-scaling-stroke" d=" M 188.31 467.93 Q 188.24 468.12 188.17 468.32 Q 188.01 468.71 187.58 468.66 L 168.78 466.28"/><path stroke="#bbc8ec" vector-effect="non-scaling-stroke" d=" M 168.78 466.28 C 153.57 453.61 131.87 442.63 117.35 434.57 Q 114.24 432.84 111.60 430.83 C 104.41 425.32 99.32 421.80 104.15 411.84 Q 105.26 409.54 106.24 407.33"/><path stroke="#ec8f95" vector-effect="non-scaling-stroke" d=" M 208.90 343.45 Q 208.66 341.27 206.75 341.72 Q 193.79 344.76 180.59 346.36 Q 176.70 346.84 170.49 348.04 Q 164.08 349.28 160.25 348.96 Q 155.34 348.54 152.39 349.56 Q 152.05 349.68 151.99 349.33 L 151.75 348.04"/><path stroke="#ec8f95" vector-effect="non-scaling-stroke" d=" M 318.38 378.40 Q 322.02 384.53 324.18 391.44 C 327.43 401.84 333.39 411.36 337.91 421.23 C 338.39 422.28 339.37 423.44 339.83 424.70 Q 340.02 425.20 339.64 425.58 Q 339.20 426.01 339.06 426.52"/><path stroke="#f0ae7d" vector-effect="non-scaling-stroke" d=" M 339.06 426.52 Q 332.23 429.02 325.88 432.55 Q 323.63 433.80 320.86 434.74 Q 318.23 435.63 315.74 436.80 Q 315.19 437.06 314.27 437.12 Q 313.79 437.15 313.39 437.41 C 311.63 438.61 309.55 438.88 307.82 439.89 Q 305.17 441.45 302.16 442.09 Q 299.81 442.60 298.05 443.57 C 295.05 445.23 291.88 446.06 288.95 447.79 C 286.14 449.46 283.92 449.41 280.98 450.72 C 276.84 452.57 272.11 452.35 267.84 453.86 Q 258.55 457.15 248.82 458.60 C 242.47 459.55 232.08 461.67 223.37 461.36 C 221.05 461.27 219.23 462.00 217.04 462.54"/><path stroke="#f7cfd2" vector-effect="non-scaling-stroke" d=" M 217.04 462.54 Q 217.09 461.73 216.91 461.05 Q 216.77 460.55 216.26 460.44 C 195.72 455.98 179.57 441.32 168.67 423.82 Q 159.88 409.71 156.15 392.15"/><path stroke="#aabbe3" vector-effect="non-scaling-stroke" d=" M 168.78 466.28 L 160.00 465.83"/><path stroke="#aabbe3" vector-effect="non-scaling-stroke" d=" M 190.57 469.13 Q 189.09 468.83 188.31 467.93"/><path stroke="#fff4f3" vector-effect="non-scaling-stroke" d=" M 148.64 143.94 Q 146.01 149.57 146.07 151.25 C 146.18 154.79 147.57 159.90 152.52 158.29 Q 156.28 157.07 157.17 155.16 Q 162.21 144.37 171.02 136.45 C 179.58 128.76 169.13 124.69 162.59 127.65 C 155.00 131.09 152.04 136.69 148.64 143.94"/><path stroke="#fff4f3" vector-effect="non-scaling-stroke" d=" M 432.17 170.70 C 429.91 173.67 429.39 177.74 429.96 181.45 Q 430.25 183.35 431.96 185.07 C 435.10 188.25 437.85 191.17 442.23 192.67 C 447.53 194.50 458.92 195.71 463.71 192.20 C 472.77 185.57 478.41 173.35 467.98 164.81 Q 459.65 157.98 448.22 159.60 C 440.74 160.65 436.80 164.64 432.17 170.70"/><path stroke="#eff2f6" vector-effect="non-scaling-stroke" d=" M 465.79 479.51 C 457.49 478.01 449.97 477.29 441.87 477.85 A 1.80 1.80 0.0 0 0 440.35 480.37 Q 441.54 483.08 444.33 483.98 Q 457.22 488.12 470.74 488.21 Q 474.32 488.23 475.85 485.38 A 1.74 1.74 0.0 0 0 475.14 483.03 C 472.09 481.38 469.34 480.15 465.79 479.51"/><path stroke="#eff2f6" vector-effect="non-scaling-stroke" d=" M 164.26 499.95 C 167.54 500.53 174.21 500.96 178.75 500.87 C 181.34 500.82 186.03 498.99 185.54 495.69 Q 185.25 493.78 183.25 493.68 C 179.81 493.51 176.11 492.82 173.08 492.76 Q 167.03 492.65 161.24 493.66 A 1.65 1.65 0.0 0 0 159.90 495.63 Q 160.67 499.31 164.26 499.95"/><path stroke="#7a556f" vector-effect="non-scaling-stroke" d=" M 309.10 83.29 Q 300.76 80.23 293.74 85.49 A 1.56 1.55 -45.3 0 0 293.75 87.99 Q 294.71 88.70 296.21 88.27 C 300.53 87.03 307.70 85.17 311.42 87.93 Q 313.85 89.73 313.01 86.83 Q 312.34 84.48 309.10 83.29"/><path stroke="#7a556f" vector-effect="non-scaling-stroke" d=" M 237.04 93.57 Q 236.60 94.30 236.90 95.19 A 0.71 0.71 0.0 0 0 238.07 95.48 C 241.79 91.91 247.93 92.24 252.62 93.13 Q 253.73 93.34 254.39 93.27 Q 255.54 93.16 256.11 92.66 A 1.79 1.79 0.0 0 0 255.66 89.68 C 249.61 87.02 240.75 87.34 237.04 93.57"/><path stroke="#f7cfd2" vector-effect="non-scaling-stroke" d=" M 289.85 107.18 C 290.98 110.93 290.57 114.77 295.50 115.44 C 298.96 115.92 308.53 115.55 310.05 110.45 Q 311.49 105.62 308.31 100.70"/><path stroke="#7a556f" vector-effect="non-scaling-stroke" d=" M 308.31 100.70 Q 306.08 99.02 301.69 99.11 Q 292.29 99.29 289.85 107.18"/><path stroke="#82859c" vector-effect="non-scaling-stroke" d=" M 308.31 100.70 Q 307.73 101.01 306.63 100.46 Q 305.80 100.04 306.40 100.75 C 308.64 103.42 309.82 106.40 308.14 109.60 C 304.37 116.76 295.85 111.25 297.40 104.26 Q 297.99 101.57 299.06 100.97 Q 301.97 99.33 298.71 100.08 Q 293.22 101.36 289.85 107.18"/><path stroke="#f7cfd2" vector-effect="non-scaling-stroke" d=" M 241.23 112.03 Q 241.00 117.35 245.14 119.43 C 247.70 120.71 252.28 120.15 254.91 119.62 Q 265.29 117.54 260.27 105.71"/><path stroke="#7a556f" vector-effect="non-scaling-stroke" d=" M 260.27 105.71 Q 257.65 103.34 253.31 103.69 Q 252.85 103.73 252.59 104.11 Q 252.31 104.52 251.71 104.70"/><path stroke="#f7cfd2" vector-effect="non-scaling-stroke" d=" M 251.71 104.70 Q 251.68 104.55 251.37 104.48"/><path stroke="#7a556f" vector-effect="non-scaling-stroke" d=" M 251.37 104.48 Q 252.02 104.29 252.27 103.96 Q 252.59 103.55 252.07 103.59 Q 243.19 104.34 241.23 112.03"/><path stroke="#82859c" vector-effect="non-scaling-stroke" d=" M 251.37 104.48 Q 245.19 105.04 241.23 112.03"/><path stroke="#82859c" vector-effect="non-scaling-stroke" d=" M 260.27 105.71 L 257.82 105.15 Q 256.98 104.95 257.61 105.54 C 264.98 112.48 255.12 122.79 249.73 114.61 Q 246.28 109.37 251.71 104.70"/><path stroke="#ec8f95" vector-effect="non-scaling-stroke" d=" M 336.62 122.62 C 337.88 118.43 342.02 113.75 346.48 116.55 Q 346.78 116.74 346.97 116.44 L 347.13 116.17 A 0.39 0.39 0.0 0 0 347.04 115.65 C 342.19 111.70 337.12 117.93 335.53 121.91 C 334.26 125.08 339.03 126.67 336.17 130.47 Q 335.91 130.82 336.29 131.02 Q 336.42 131.09 336.58 131.19 A 0.66 0.66 0.0 0 0 337.61 130.78 Q 338.34 127.05 337.08 124.54 Q 336.43 123.26 336.62 122.62"/><path stroke="#ec8f95" vector-effect="non-scaling-stroke" d=" M 215.03 135.02 C 214.24 130.15 209.41 126.95 204.79 126.55 A 1.90 1.88 21.3 0 0 203.13 127.27 L 202.36 128.24 A 0.46 0.46 0.0 0 0 202.80 128.98 Q 209.92 127.88 213.45 134.35 C 214.88 136.98 210.83 139.47 215.14 142.54 Q 215.26 142.63 215.36 142.59 Q 215.49 142.55 215.59 142.38 Q 215.77 142.10 215.55 141.85 Q 213.23 139.20 214.86 136.09 Q 215.12 135.58 215.03 135.02"/><path stroke="#ec8f95" vector-effect="non-scaling-stroke" d=" M 283.02 132.37 Q 284.58 131.54 284.75 130.22 Q 284.95 128.75 283.86 129.76 C 281.78 131.68 280.15 133.25 276.75 132.61 Q 273.56 132.01 270.72 129.92 A 0.30 0.29 -62.6 0 0 270.27 130.07 L 270.19 130.36 Q 270.00 130.96 270.51 131.34 C 274.85 134.52 278.32 134.87 283.02 132.37"/><path stroke="#ec8f95" vector-effect="non-scaling-stroke" d=" M 291.08 144.41 Q 292.09 144.66 293.23 144.74 Q 293.96 144.79 293.98 144.06 L 293.98 143.75 Q 293.99 143.43 293.68 143.37 Q 286.96 142.09 280.45 142.46 C 275.92 142.72 271.17 144.34 266.66 145.72 Q 265.99 145.92 265.84 146.60 L 265.76 146.96 A 0.49 0.48 -2.2 0 0 266.38 147.53 C 271.62 145.93 276.81 144.06 282.21 143.99 C 285.00 143.95 288.39 143.75 291.08 144.41"/><path stroke="#ec8f95" vector-effect="non-scaling-stroke" d=" M 266.00 219.27 L 264.74 218.50 A 0.48 0.48 0.0 0 0 264.04 218.74 L 263.92 219.04 Q 263.67 219.69 264.29 220.01 Q 265.15 220.45 266.12 220.39 Q 266.57 220.36 266.96 220.61 Q 269.96 222.55 270.01 226.12 A 1.42 1.41 84.8 0 1 268.83 227.54 C 263.74 228.42 261.88 226.61 257.76 224.67 Q 255.82 223.76 255.67 222.13 C 255.22 217.24 254.07 204.12 262.79 203.35 Q 267.90 202.90 275.02 203.07 A 0.64 0.63 -86.0 0 0 275.66 202.51 L 275.69 202.23 Q 275.73 201.87 275.36 201.86 C 269.78 201.75 261.12 201.00 257.84 204.47 C 253.68 208.85 253.99 214.32 254.25 219.75 C 254.36 221.98 254.78 223.78 256.83 225.05 C 260.34 227.22 265.55 230.19 269.52 228.09 Q 270.67 227.48 271.16 228.69 L 274.70 237.46 Q 274.76 237.62 274.92 237.56 L 275.17 237.46 Q 275.40 237.37 275.31 237.14 C 274.22 234.44 273.60 232.58 272.11 229.09 C 270.71 225.82 270.66 223.10 268.07 219.82 Q 267.70 219.36 268.24 219.12 Q 269.89 218.36 270.11 216.43 A 0.35 0.35 0.0 0 0 269.44 216.26 L 268.84 217.71 A 0.74 0.73 -1.4 0 1 268.47 218.09 C 266.91 218.74 266.17 216.80 265.97 215.61 Q 265.94 215.44 265.76 215.43 Q 265.63 215.42 265.50 215.41 A 0.34 0.34 0.0 0 0 265.14 215.76 Q 265.19 217.50 266.39 218.74 Q 268.13 220.56 266.00 219.27"/></g><path fill="#ffffff" d=" M 0.00 0.00 L 529.00 0.00 L 529.00 520.00 L 0.00 520.00 L 0.00 0.00 Z M 210.98 120.40 C 204.20 116.73 200.66 120.66 198.92 126.82 C 196.95 130.65 197.05 134.17 192.57 136.73 Q 191.35 137.43 190.28 138.40 Q 189.93 138.72 189.46 138.64 Q 188.79 138.53 188.51 138.76 C 181.71 144.43 176.03 148.58 168.96 156.14 Q 166.48 158.79 164.95 162.02 C 163.10 165.89 159.93 170.96 160.92 175.27 C 162.32 181.42 165.39 184.95 171.14 188.22 C 175.98 190.97 184.23 196.22 185.03 202.11 Q 185.74 207.32 181.71 211.25 C 170.99 221.70 160.08 229.54 145.97 235.71 Q 138.71 238.88 131.53 243.91 C 127.21 246.94 121.93 249.71 117.54 253.31 C 114.10 256.13 110.18 257.58 106.62 260.34 C 102.69 263.39 100.41 265.06 97.17 267.29 C 93.94 269.51 90.93 273.13 88.14 274.90 Q 85.06 276.86 83.31 278.38 C 81.45 280.00 78.51 281.64 77.41 283.16 C 72.42 290.04 65.56 296.44 60.50 304.25 C 57.99 308.13 56.45 312.47 54.79 316.85 C 52.47 322.92 51.59 329.31 50.34 335.75 Q 49.58 339.68 50.28 352.25 Q 50.58 357.74 53.15 368.86 C 55.76 380.11 59.29 388.64 65.26 397.75 C 67.82 401.66 71.46 404.19 75.06 407.18 Q 75.44 407.49 75.93 407.51 Q 76.59 407.54 77.20 407.32 A 1.01 0.98 45.8 0 1 77.92 407.34 Q 78.89 407.77 78.82 408.22 Q 74.40 412.94 66.50 412.39 C 57.08 411.73 47.62 409.57 38.69 414.26 C 33.06 417.22 24.05 423.54 23.95 430.74 C 23.81 439.61 34.30 442.23 41.25 442.36 Q 51.13 442.53 60.99 442.58 Q 66.63 442.61 70.52 446.39 C 75.73 451.46 73.76 459.97 82.98 461.86 C 95.77 464.48 104.16 457.51 115.91 455.27 Q 139.71 450.72 160.00 465.83 Q 145.49 463.57 137.00 464.04 Q 130.35 464.41 123.76 465.25 C 119.31 465.82 109.23 469.51 113.20 476.11 C 117.02 482.47 139.92 482.66 147.50 482.86 Q 162.42 483.25 177.24 485.01 C 184.97 485.93 195.87 487.97 199.39 494.38 C 202.62 500.28 204.65 504.35 210.62 507.63 C 227.92 517.13 250.87 517.61 269.84 513.99 Q 277.36 512.55 284.92 511.28 C 294.75 509.62 303.42 507.78 312.64 505.83 Q 317.90 504.72 323.89 504.21 C 344.72 502.47 367.41 500.72 389.62 503.05 Q 399.49 504.08 409.35 505.24 C 415.24 505.93 423.53 506.46 428.00 505.01 C 430.57 504.18 436.57 501.74 437.05 498.75 C 438.35 490.67 422.19 483.59 418.08 476.76 Q 417.82 476.34 418.01 475.88 Q 419.20 472.92 422.24 472.51 C 433.58 470.99 445.57 477.16 456.42 472.66 C 459.09 471.55 458.02 467.73 455.52 467.12 C 452.92 466.49 450.36 465.61 447.79 465.25 Q 439.16 464.03 430.48 463.18 Q 426.61 462.79 422.29 462.04 Q 434.05 451.52 443.44 445.91 C 459.06 436.59 472.84 430.08 487.81 422.55 C 498.18 417.34 507.78 411.61 515.51 402.77 C 523.36 393.79 529.88 376.32 516.54 368.67 Q 509.82 364.81 499.47 364.77 Q 500.45 362.62 501.92 360.60 Q 503.98 357.78 504.63 356.65 C 510.82 345.73 513.84 336.13 516.55 323.82 Q 517.71 318.58 517.79 313.06 Q 517.96 300.36 517.78 287.65 C 517.72 283.47 516.90 279.36 516.34 275.17 C 513.66 254.98 498.69 239.22 481.10 230.63 Q 462.02 221.31 454.52 218.77 Q 450.02 217.25 446.90 215.86 C 438.87 212.29 430.12 209.12 423.51 204.02 C 414.04 196.71 402.67 188.20 401.49 175.81 C 400.96 170.28 403.10 165.27 404.61 160.22 C 405.36 157.71 410.55 153.45 412.42 149.40 Q 413.32 147.47 414.47 145.78 Q 419.75 138.06 423.20 129.36 C 424.31 126.57 424.47 123.58 424.82 120.60 C 425.60 113.88 424.91 107.91 422.01 101.85 C 418.68 94.93 411.77 91.90 405.33 88.75 Q 402.27 87.25 399.11 86.66 C 387.29 84.44 375.67 84.05 363.37 84.43 C 357.96 84.60 350.35 85.63 343.71 85.55 Q 343.16 85.54 342.79 85.94 Q 340.69 88.24 339.13 92.48 L 338.51 88.40 Q 338.43 87.89 338.74 87.49 C 346.17 77.76 347.42 66.69 339.77 57.03 C 338.05 54.86 335.58 53.08 333.36 51.21 C 325.73 44.79 322.58 37.57 313.46 32.89 Q 313.02 32.66 312.81 32.20 Q 307.30 19.81 295.26 15.72 C 273.38 8.30 241.25 11.58 226.66 31.95 C 222.08 38.33 216.74 50.39 209.39 57.68 C 203.27 63.74 198.01 69.81 195.35 77.75 C 192.02 87.71 193.05 97.06 203.99 101.12 Q 204.46 101.29 204.54 101.79 Q 206.19 111.36 210.98 120.40 Z M 148.64 143.94 Q 146.01 149.57 146.07 151.25 C 146.18 154.79 147.57 159.90 152.52 158.29 Q 156.28 157.07 157.17 155.16 Q 162.21 144.37 171.02 136.45 C 179.58 128.76 169.13 124.69 162.59 127.65 C 155.00 131.09 152.04 136.69 148.64 143.94 Z M 432.17 170.70 C 429.91 173.67 429.39 177.74 429.96 181.45 Q 430.25 183.35 431.96 185.07 C 435.10 188.25 437.85 191.17 442.23 192.67 C 447.53 194.50 458.92 195.71 463.71 192.20 C 472.77 185.57 478.41 173.35 467.98 164.81 Q 459.65 157.98 448.22 159.60 C 440.74 160.65 436.80 164.64 432.17 170.70 Z M 465.79 479.51 C 457.49 478.01 449.97 477.29 441.87 477.85 A 1.80 1.80 0.0 0 0 440.35 480.37 Q 441.54 483.08 444.33 483.98 Q 457.22 488.12 470.74 488.21 Q 474.32 488.23 475.85 485.38 A 1.74 1.74 0.0 0 0 475.14 483.03 C 472.09 481.38 469.34 480.15 465.79 479.51 Z M 164.26 499.95 C 167.54 500.53 174.21 500.96 178.75 500.87 C 181.34 500.82 186.03 498.99 185.54 495.69 Q 185.25 493.78 183.25 493.68 C 179.81 493.51 176.11 492.82 173.08 492.76 Q 167.03 492.65 161.24 493.66 A 1.65 1.65 0.0 0 0 159.90 495.63 Q 160.67 499.31 164.26 499.95 Z"/><path fill="#050a39" d=" M 339.13 92.48 Q 339.54 99.75 337.81 107.93 C 334.29 110.63 334.15 113.57 332.38 116.75 Q 330.74 119.68 330.39 116.34 C 329.93 111.99 327.71 107.84 326.91 103.51 C 325.78 97.47 325.92 90.07 325.64 83.45 C 325.45 78.86 323.77 76.52 319.75 73.90 C 314.38 70.42 311.55 66.86 308.24 60.78 C 305.23 55.23 303.33 51.75 299.03 47.77 Q 298.68 47.45 298.24 47.63 Q 294.92 49.01 292.75 49.29 C 284.27 50.36 273.32 49.72 264.24 51.94 Q 260.81 52.78 256.17 54.97 Q 250.46 59.91 245.14 64.91 C 241.07 68.73 235.44 68.81 231.95 72.79 Q 229.64 75.42 228.63 77.46 Q 225.18 84.40 220.76 90.82 Q 220.46 91.27 220.72 91.74 Q 221.49 93.12 221.72 94.50 C 223.18 99.86 223.70 105.72 222.24 111.15 C 221.21 114.96 219.45 118.63 220.22 122.50 C 220.85 125.68 222.33 130.03 219.52 131.40 Q 219.03 131.65 218.54 131.39 C 214.59 129.31 212.89 124.23 210.98 120.40 Q 206.19 111.36 204.54 101.79 Q 204.46 101.29 203.99 101.12 C 193.05 97.06 192.02 87.71 195.35 77.75 C 198.01 69.81 203.27 63.74 209.39 57.68 C 216.74 50.39 222.08 38.33 226.66 31.95 C 241.25 11.58 273.38 8.30 295.26 15.72 Q 307.30 19.81 312.81 32.20 Q 313.02 32.66 313.46 32.89 C 322.58 37.57 325.73 44.79 333.36 51.21 C 335.58 53.08 338.05 54.86 339.77 57.03 C 347.42 66.69 346.17 77.76 338.74 87.49 Q 338.43 87.89 338.51 88.40 L 339.13 92.48 Z"/><path fill="#ee9fa5" d=" M 337.81 107.93 Q 341.46 105.11 345.05 106.33 C 351.92 108.67 351.84 119.76 349.93 125.22 Q 345.32 138.36 332.01 141.19 A 1.89 1.88 2.7 0 0 330.61 142.46 C 328.67 148.63 326.00 154.03 321.71 159.15 Q 314.63 167.59 306.10 174.65 Q 305.72 174.97 305.71 175.47 L 305.68 178.35 L 305.26 175.95 A 0.63 0.62 63.6 0 0 304.22 175.60 C 302.64 177.08 300.69 176.96 299.28 177.84 Q 298.01 178.64 296.87 179.91 A 0.82 0.82 0.0 0 1 295.48 179.61 C 292.09 168.81 286.61 161.02 275.63 157.32 C 271.32 155.87 267.76 156.66 264.15 159.08 Q 262.85 159.95 260.56 160.97 C 256.59 162.75 255.35 168.10 260.25 170.01 C 261.95 170.68 266.01 169.86 267.91 169.81 C 270.91 169.72 274.30 170.16 275.61 172.63 Q 277.63 176.41 279.49 180.20 Q 279.82 180.88 279.10 180.70 C 273.17 179.26 262.87 177.11 258.46 183.04 C 259.09 181.47 259.00 180.37 257.29 179.65 C 249.22 176.22 242.31 171.25 234.78 165.71 Q 231.81 163.52 226.15 156.21 C 225.36 155.18 224.77 153.45 223.56 152.36 Q 223.17 152.00 222.64 152.03 Q 216.84 152.34 211.83 149.66 Q 198.18 142.37 198.92 126.82 C 200.66 120.66 204.20 116.73 210.98 120.40 C 212.89 124.23 214.59 129.31 218.54 131.39 Q 219.03 131.65 219.52 131.40 C 222.33 130.03 220.85 125.68 220.22 122.50 C 219.45 118.63 221.21 114.96 222.24 111.15 C 223.70 105.72 223.18 99.86 221.72 94.50 Q 222.44 93.79 223.07 94.31 Q 223.37 94.57 223.55 94.21 C 223.88 93.54 223.90 92.95 224.28 92.33 Q 228.26 85.62 232.22 78.90 C 235.46 73.40 239.47 74.94 243.73 71.71 Q 248.38 68.18 251.91 63.53 Q 252.13 63.25 252.10 62.88 A 0.72 0.72 0.0 0 1 252.33 62.31 Q 255.49 59.20 256.17 54.97 Q 260.81 52.78 264.24 51.94 C 273.32 49.72 284.27 50.36 292.75 49.29 Q 294.92 49.01 298.24 47.63 Q 298.68 47.45 299.03 47.77 C 303.33 51.75 305.23 55.23 308.24 60.78 C 311.55 66.86 314.38 70.42 319.75 73.90 C 323.77 76.52 325.45 78.86 325.64 83.45 C 325.92 90.07 325.78 97.47 326.91 103.51 C 327.71 107.84 329.93 111.99 330.39 116.34 Q 330.74 119.68 332.38 116.75 C 334.15 113.57 334.29 110.63 337.81 107.93 Z M 309.10 83.29 Q 300.76 80.23 293.74 85.49 A 1.56 1.55 -45.3 0 0 293.75 87.99 Q 294.71 88.70 296.21 88.27 C 300.53 87.03 307.70 85.17 311.42 87.93 Q 313.85 89.73 313.01 86.83 Q 312.34 84.48 309.10 83.29 Z M 237.04 93.57 Q 236.60 94.30 236.90 95.19 A 0.71 0.71 0.0 0 0 238.07 95.48 C 241.79 91.91 247.93 92.24 252.62 93.13 Q 253.73 93.34 254.39 93.27 Q 255.54 93.16 256.11 92.66 A 1.79 1.79 0.0 0 0 255.66 89.68 C 249.61 87.02 240.75 87.34 237.04 93.57 Z M 289.85 107.18 C 290.98 110.93 290.57 114.77 295.50 115.44 C 298.96 115.92 308.53 115.55 310.05 110.45 Q 311.49 105.62 308.31 100.70 Q 306.08 99.02 301.69 99.11 Q 292.29 99.29 289.85 107.18 Z M 241.23 112.03 Q 241.00 117.35 245.14 119.43 C 247.70 120.71 252.28 120.15 254.91 119.62 Q 265.29 117.54 260.27 105.71 Q 257.65 103.34 253.31 103.69 Q 252.85 103.73 252.59 104.11 Q 252.31 104.52 251.71 104.70 Q 251.68 104.55 251.37 104.48 Q 252.02 104.29 252.27 103.96 Q 252.59 103.55 252.07 103.59 Q 243.19 104.34 241.23 112.03 Z M 336.62 122.62 C 337.88 118.43 342.02 113.75 346.48 116.55 Q 346.78 116.74 346.97 116.44 L 347.13 116.17 A 0.39 0.39 0.0 0 0 347.04 115.65 C 342.19 111.70 337.12 117.93 335.53 121.91 C 334.26 125.08 339.03 126.67 336.17 130.47 Q 335.91 130.82 336.29 131.02 Q 336.42 131.09 336.58 131.19 A 0.66 0.66 0.0 0 0 337.61 130.78 Q 338.34 127.05 337.08 124.54 Q 336.43 123.26 336.62 122.62 Z M 215.03 135.02 C 214.24 130.15 209.41 126.95 204.79 126.55 A 1.90 1.88 21.3 0 0 203.13 127.27 L 202.36 128.24 A 0.46 0.46 0.0 0 0 202.80 128.98 Q 209.92 127.88 213.45 134.35 C 214.88 136.98 210.83 139.47 215.14 142.54 Q 215.26 142.63 215.36 142.59 Q 215.49 142.55 215.59 142.38 Q 215.77 142.10 215.55 141.85 Q 213.23 139.20 214.86 136.09 Q 215.12 135.58 215.03 135.02 Z M 283.02 132.37 Q 284.58 131.54 284.75 130.22 Q 284.95 128.75 283.86 129.76 C 281.78 131.68 280.15 133.25 276.75 132.61 Q 273.56 132.01 270.72 129.92 A 0.30 0.29 -62.6 0 0 270.27 130.07 L 270.19 130.36 Q 270.00 130.96 270.51 131.34 C 274.85 134.52 278.32 134.87 283.02 132.37 Z M 291.08 144.41 Q 292.09 144.66 293.23 144.74 Q 293.96 144.79 293.98 144.06 L 293.98 143.75 Q 293.99 143.43 293.68 143.37 Q 286.96 142.09 280.45 142.46 C 275.92 142.72 271.17 144.34 266.66 145.72 Q 265.99 145.92 265.84 146.60 L 265.76 146.96 A 0.49 0.48 -2.2 0 0 266.38 147.53 C 271.62 145.93 276.81 144.06 282.21 143.99 C 285.00 143.95 288.39 143.75 291.08 144.41 Z"/><path fill="#e97f85" d=" M 256.17 54.97 Q 255.49 59.20 252.33 62.31 A 0.72 0.72 0.0 0 0 252.10 62.88 Q 252.13 63.25 251.91 63.53 Q 248.38 68.18 243.73 71.71 C 239.47 74.94 235.46 73.40 232.22 78.90 Q 228.26 85.62 224.28 92.33 C 223.90 92.95 223.88 93.54 223.55 94.21 Q 223.37 94.57 223.07 94.31 Q 222.44 93.79 221.72 94.50 Q 221.49 93.12 220.72 91.74 Q 220.46 91.27 220.76 90.82 Q 225.18 84.40 228.63 77.46 Q 229.64 75.42 231.95 72.79 C 235.44 68.81 241.07 68.73 245.14 64.91 Q 250.46 59.91 256.17 54.97 Z"/><path fill="#050a39" d=" M 309.10 83.29 Q 312.34 84.48 313.01 86.83 Q 313.85 89.73 311.42 87.93 C 307.70 85.17 300.53 87.03 296.21 88.27 Q 294.71 88.70 293.75 87.99 A 1.56 1.55 -45.3 0 1 293.74 85.49 Q 300.76 80.23 309.10 83.29 Z"/><path fill="#ffe8e7" d=" M 499.47 364.77 Q 485.48 364.31 473.09 370.60 Q 452.99 380.80 436.68 399.44 L 439.73 378.96 Q 445.29 373.73 446.47 371.46 C 449.33 365.93 453.35 361.30 456.27 356.04 Q 462.12 345.51 470.19 336.51 C 471.77 334.75 472.91 332.51 474.50 330.60 Q 476.67 328.01 477.86 326.30 C 480.22 322.93 483.47 319.78 485.78 316.99 C 491.52 310.04 496.85 305.29 503.32 296.68 C 507.08 291.67 507.90 287.71 509.03 281.79 Q 509.59 278.89 508.91 276.73 C 506.14 267.80 495.69 263.82 487.22 265.86 Q 482.67 266.95 480.72 267.28 C 474.89 268.27 469.66 270.91 464.12 273.84 C 457.10 277.55 451.58 282.98 445.86 288.42 C 445.26 288.99 444.82 289.78 444.11 290.38 Q 443.72 290.70 443.68 291.20 L 443.59 292.30 Q 442.90 289.73 442.41 287.11 C 441.56 282.55 440.39 278.41 439.33 274.07 C 431.58 242.27 388.92 225.40 360.23 217.02 Q 356.88 216.05 353.46 215.49 Q 351.37 215.15 349.46 214.43 Q 347.08 213.52 345.50 213.16 Q 340.11 211.92 332.78 210.93 C 323.24 208.10 316.04 206.60 311.52 198.19 C 307.57 192.27 306.17 185.57 305.68 178.35 L 305.71 175.47 Q 305.72 174.97 306.10 174.65 Q 314.63 167.59 321.71 159.15 C 326.00 154.03 328.67 148.63 330.61 142.46 A 1.89 1.88 2.7 0 1 332.01 141.19 Q 345.32 138.36 349.93 125.22 C 351.84 119.76 351.92 108.67 345.05 106.33 Q 341.46 105.11 337.81 107.93 Q 339.54 99.75 339.13 92.48 Q 340.69 88.24 342.79 85.94 Q 343.16 85.54 343.71 85.55 C 350.35 85.63 357.96 84.60 363.37 84.43 C 375.67 84.05 387.29 84.44 399.11 86.66 Q 402.27 87.25 405.33 88.75 C 411.77 91.90 418.68 94.93 422.01 101.85 C 424.91 107.91 425.60 113.88 424.82 120.60 C 424.47 123.58 424.31 126.57 423.20 129.36 Q 419.75 138.06 414.47 145.78 Q 413.32 147.47 412.42 149.40 C 410.55 153.45 405.36 157.71 404.61 160.22 C 403.10 165.27 400.96 170.28 401.49 175.81 C 402.67 188.20 414.04 196.71 423.51 204.02 C 430.12 209.12 438.87 212.29 446.90 215.86 Q 450.02 217.25 454.52 218.77 Q 462.02 221.31 481.10 230.63 C 498.69 239.22 513.66 254.98 516.34 275.17 C 516.90 279.36 517.72 283.47 517.78 287.65 Q 517.96 300.36 517.79 313.06 Q 517.71 318.58 516.55 323.82 C 513.84 336.13 510.82 345.73 504.63 356.65 Q 503.98 357.78 501.92 360.60 Q 500.45 362.62 499.47 364.77 Z"/><path fill="#050a39" d=" M 237.04 93.57 C 240.75 87.34 249.61 87.02 255.66 89.68 A 1.79 1.79 0.0 0 1 256.11 92.66 Q 255.54 93.16 254.39 93.27 Q 253.73 93.34 252.62 93.13 C 247.93 92.24 241.79 91.91 238.07 95.48 A 0.71 0.71 0.0 0 1 236.90 95.19 Q 236.60 94.30 237.04 93.57 Z"/><path fill="#050a39" d=" M 308.31 100.70 Q 307.73 101.01 306.63 100.46 Q 305.80 100.04 306.40 100.75 C 308.64 103.42 309.82 106.40 308.14 109.60 C 304.37 116.76 295.85 111.25 297.40 104.26 Q 297.99 101.57 299.06 100.97 Q 301.97 99.33 298.71 100.08 Q 293.22 101.36 289.85 107.18 Q 292.29 99.29 301.69 99.11 Q 306.08 99.02 308.31 100.70 Z"/><path fill="#ffffff" d=" M 308.31 100.70 Q 311.49 105.62 310.05 110.45 C 308.53 115.55 298.96 115.92 295.50 115.44 C 290.57 114.77 290.98 110.93 289.85 107.18 Q 293.22 101.36 298.71 100.08 Q 301.97 99.33 299.06 100.97 Q 297.99 101.57 297.40 104.26 C 295.85 111.25 304.37 116.76 308.14 109.60 C 309.82 106.40 308.64 103.42 306.40 100.75 Q 305.80 100.04 306.63 100.46 Q 307.73 101.01 308.31 100.70 Z"/><path fill="#050a39" d=" M 251.37 104.48 Q 245.19 105.04 241.23 112.03 Q 243.19 104.34 252.07 103.59 Q 252.59 103.55 252.27 103.96 Q 252.02 104.29 251.37 104.48 Z"/><path fill="#050a39" d=" M 260.27 105.71 L 257.82 105.15 Q 256.98 104.95 257.61 105.54 C 264.98 112.48 255.12 122.79 249.73 114.61 Q 246.28 109.37 251.71 104.70 Q 252.31 104.52 252.59 104.11 Q 252.85 103.73 253.31 103.69 Q 257.65 103.34 260.27 105.71 Z"/><path fill="#ffffff" d=" M 251.37 104.48 Q 251.68 104.55 251.71 104.70 Q 246.28 109.37 249.73 114.61 C 255.12 122.79 264.98 112.48 257.61 105.54 Q 256.98 104.95 257.82 105.15 L 260.27 105.71 Q 265.29 117.54 254.91 119.62 C 252.28 120.15 247.70 120.71 245.14 119.43 Q 241.00 117.35 241.23 112.03 Q 245.19 105.04 251.37 104.48 Z"/><path fill="#e97f85" d=" M 336.62 122.62 Q 336.43 123.26 337.08 124.54 Q 338.34 127.05 337.61 130.78 A 0.66 0.66 0.0 0 1 336.58 131.19 Q 336.42 131.09 336.29 131.02 Q 335.91 130.82 336.17 130.47 C 339.03 126.67 334.26 125.08 335.53 121.91 C 337.12 117.93 342.19 111.70 347.04 115.65 A 0.39 0.39 0.0 0 1 347.13 116.17 L 346.97 116.44 Q 346.78 116.74 346.48 116.55 C 342.02 113.75 337.88 118.43 336.62 122.62 Z"/><path fill="#ffe8e7" d=" M 148.64 143.94 C 152.04 136.69 155.00 131.09 162.59 127.65 C 169.13 124.69 179.58 128.76 171.02 136.45 Q 162.21 144.37 157.17 155.16 Q 156.28 157.07 152.52 158.29 C 147.57 159.90 146.18 154.79 146.07 151.25 Q 146.01 149.57 148.64 143.94 Z"/><path fill="#e97f85" d=" M 204.79 126.55 C 209.41 126.95 214.24 130.15 215.03 135.02 Q 215.12 135.58 214.86 136.09 Q 213.23 139.20 215.55 141.85 Q 215.77 142.10 215.59 142.38 Q 215.49 142.55 215.36 142.59 Q 215.26 142.63 215.14 142.54 C 210.83 139.47 214.88 136.98 213.45 134.35 Q 209.92 127.88 202.80 128.98 A 0.46 0.46 0.0 0 1 202.36 128.24 L 203.13 127.27 A 1.90 1.88 21.3 0 1 204.79 126.55 Z"/><path fill="#ffe8e7" d=" M 198.92 126.82 Q 198.18 142.37 211.83 149.66 Q 216.84 152.34 222.64 152.03 Q 223.17 152.00 223.56 152.36 C 224.77 153.45 225.36 155.18 226.15 156.21 Q 231.81 163.52 234.78 165.71 C 242.31 171.25 249.22 176.22 257.29 179.65 C 259.00 180.37 259.09 181.47 258.46 183.04 C 254.97 188.23 251.77 192.62 251.53 197.52 C 251.40 200.27 252.93 202.73 252.67 205.89 L 252.32 207.84 Q 252.23 208.34 251.82 208.61 Q 244.66 213.41 236.77 216.86 Q 221.08 223.35 205.52 230.04 C 193.11 235.38 184.61 242.18 176.23 251.49 C 173.80 254.19 171.80 257.58 169.59 260.67 Q 166.76 264.61 165.21 267.92 Q 157.44 284.40 153.43 302.24 Q 148.86 322.59 146.09 343.06 A 0.85 0.85 0.0 0 0 147.18 343.99 Q 148.87 343.49 150.75 343.21 Q 152.14 343.00 151.83 344.71 L 151.75 348.04 Q 151.90 369.80 153.61 379.00 Q 154.77 385.28 156.15 392.15 Q 150.88 390.69 147.99 389.61 C 145.50 388.69 139.17 386.10 137.75 383.53 Q 134.32 377.34 129.92 371.83 C 126.03 366.95 123.00 360.71 117.70 357.11 C 114.20 354.73 111.00 351.78 107.32 350.63 C 101.68 348.87 93.86 348.85 89.47 353.47 Q 87.48 355.56 85.84 357.92 C 84.19 360.29 84.16 363.20 83.11 365.91 A 2.92 2.92 0.0 0 0 83.49 368.72 Q 85.00 370.75 86.17 373.34 C 87.18 375.55 88.53 376.22 90.35 377.52 C 95.26 381.02 99.78 385.43 104.45 389.29 C 107.55 391.85 108.00 393.32 109.32 396.95 C 110.30 399.65 110.54 400.58 108.51 402.96 Q 106.81 404.96 106.24 407.33 C 103.41 405.94 100.59 404.30 97.80 403.49 Q 86.81 400.30 78.82 408.22 Q 78.89 407.77 77.92 407.34 A 1.01 0.98 45.8 0 0 77.20 407.32 Q 76.59 407.54 75.93 407.51 Q 75.44 407.49 75.06 407.18 C 71.46 404.19 67.82 401.66 65.26 397.75 C 59.29 388.64 55.76 380.11 53.15 368.86 Q 50.58 357.74 50.28 352.25 Q 49.58 339.68 50.34 335.75 C 51.59 329.31 52.47 322.92 54.79 316.85 C 56.45 312.47 57.99 308.13 60.50 304.25 C 65.56 296.44 72.42 290.04 77.41 283.16 C 78.51 281.64 81.45 280.00 83.31 278.38 Q 85.06 276.86 88.14 274.90 C 90.93 273.13 93.94 269.51 97.17 267.29 C 100.41 265.06 102.69 263.39 106.62 260.34 C 110.18 257.58 114.10 256.13 117.54 253.31 C 121.93 249.71 127.21 246.94 131.53 243.91 Q 138.71 238.88 145.97 235.71 C 160.08 229.54 170.99 221.70 181.71 211.25 Q 185.74 207.32 185.03 202.11 C 184.23 196.22 175.98 190.97 171.14 188.22 C 165.39 184.95 162.32 181.42 160.92 175.27 C 159.93 170.96 163.10 165.89 164.95 162.02 Q 166.48 158.79 168.96 156.14 C 176.03 148.58 181.71 144.43 188.51 138.76 Q 188.79 138.53 189.46 138.64 Q 189.93 138.72 190.28 138.40 Q 191.35 137.43 192.57 136.73 C 197.05 134.17 196.95 130.65 198.92 126.82 Z"/><path fill="#e97f85" d=" M 283.02 132.37 C 278.32 134.87 274.85 134.52 270.51 131.34 Q 270.00 130.96 270.19 130.36 L 270.27 130.07 A 0.30 0.29 -62.6 0 1 270.72 129.92 Q 273.56 132.01 276.75 132.61 C 280.15 133.25 281.78 131.68 283.86 129.76 Q 284.95 128.75 284.75 130.22 Q 284.58 131.54 283.02 132.37 Z"/><path fill="#e97f85" d=" M 291.08 144.41 C 288.39 143.75 285.00 143.95 282.21 143.99 C 276.81 144.06 271.62 145.93 266.38 147.53 A 0.49 0.48 -2.2 0 1 265.76 146.96 L 265.84 146.60 Q 265.99 145.92 266.66 145.72 C 271.17 144.34 275.92 142.72 280.45 142.46 Q 286.96 142.09 293.68 143.37 Q 293.99 143.43 293.98 143.75 L 293.98 144.06 Q 293.96 144.79 293.23 144.74 Q 292.09 144.66 291.08 144.41 Z"/><path fill="#e97f85" d=" M 305.68 178.35 C 306.17 185.57 307.57 192.27 311.52 198.19 Q 310.80 198.91 308.96 197.41 A 1.63 1.56 66.0 0 0 308.08 197.05 Q 304.70 196.77 301.93 194.88 A 0.35 0.35 0.0 0 0 301.40 195.30 L 313.66 226.67 A 0.45 0.45 0.0 0 1 313.40 227.25 L 313.10 227.36 Q 312.86 227.45 312.77 227.22 Q 307.02 211.58 300.11 196.38 Q 298.15 192.09 293.13 176.68 C 291.33 171.14 286.38 164.27 281.04 161.67 C 277.37 159.88 272.82 157.15 268.61 158.78 C 265.75 159.89 258.95 162.63 258.16 165.57 A 1.27 1.27 0.0 0 0 258.26 166.49 C 259.50 168.88 261.55 169.12 264.16 168.61 C 276.01 166.30 277.13 171.87 281.39 180.59 Q 281.65 181.11 282.18 181.33 L 283.74 181.99 Q 284.05 182.13 283.94 182.45 L 283.85 182.71 Q 283.68 183.20 283.18 183.09 C 279.09 182.23 264.20 178.90 261.27 182.35 C 257.48 186.81 251.99 194.26 253.05 200.44 A 1.09 1.09 0.0 0 0 255.03 200.87 C 260.19 193.30 271.25 191.99 279.58 193.69 A 0.42 0.42 0.0 0 1 279.89 194.25 L 279.75 194.59 Q 279.49 195.24 278.81 195.08 C 270.53 193.15 263.09 194.46 257.31 199.82 Q 255.52 201.47 254.90 203.57 Q 254.24 205.81 253.96 208.10 A 0.50 0.49 -89.9 0 1 253.54 208.53 L 253.29 208.57 Q 252.75 208.65 252.73 208.11 L 252.67 205.89 C 252.93 202.73 251.40 200.27 251.53 197.52 C 251.77 192.62 254.97 188.23 258.46 183.04 C 262.87 177.11 273.17 179.26 279.10 180.70 Q 279.82 180.88 279.49 180.20 Q 277.63 176.41 275.61 172.63 C 274.30 170.16 270.91 169.72 267.91 169.81 C 266.01 169.86 261.95 170.68 260.25 170.01 C 255.35 168.10 256.59 162.75 260.56 160.97 Q 262.85 159.95 264.15 159.08 C 267.76 156.66 271.32 155.87 275.63 157.32 C 286.61 161.02 292.09 168.81 295.48 179.61 A 0.82 0.82 0.0 0 0 296.87 179.91 Q 298.01 178.64 299.28 177.84 C 300.69 176.96 302.64 177.08 304.22 175.60 A 0.63 0.62 63.6 0 1 305.26 175.95 L 305.68 178.35 Z"/><path fill="#ee9fa5" d=" M 311.52 198.19 C 316.04 206.60 323.24 208.10 332.78 210.93 L 328.05 211.75 A 1.17 1.13 17.1 0 0 327.42 212.07 C 324.25 215.22 322.80 219.45 318.92 221.91 Q 317.97 222.51 317.09 223.28 A 1.04 1.04 0.0 0 0 316.76 223.85 L 315.54 230.36 Q 315.45 230.85 315.59 231.33 Q 317.18 236.72 317.88 238.13 Q 334.05 270.69 353.86 301.17 Q 355.27 303.35 357.07 307.18 C 358.27 309.75 360.70 312.35 362.08 314.49 Q 366.30 321.00 370.29 327.64 Q 370.87 328.60 371.55 329.50 Q 376.59 336.25 381.71 342.95 Q 382.24 343.65 383.08 345.17 Q 383.75 346.39 384.63 347.32 Q 393.93 364.91 406.44 380.63 A 0.35 0.35 0.0 0 0 407.06 380.45 Q 407.17 379.22 406.78 378.07 Q 406.63 377.63 406.65 377.16 Q 406.72 375.95 406.08 374.76 C 405.01 372.74 404.29 370.20 404.10 367.65 C 403.57 360.82 402.49 354.04 402.60 347.37 Q 402.75 338.59 403.13 329.88 Q 423.56 330.76 444.22 329.22 L 443.81 329.41 Q 443.39 329.60 443.35 330.07 L 439.73 378.96 L 436.68 399.44 Q 434.04 410.17 432.68 413.94 C 428.71 424.92 423.18 433.62 412.57 439.16 Q 409.44 440.80 406.63 442.59 Q 406.68 442.37 406.62 442.23 Q 406.47 441.85 406.10 442.00 C 401.60 443.80 394.98 443.80 389.81 443.02 A 0.61 0.61 0.0 0 0 389.13 443.48 L 384.37 463.60 Q 383.59 464.61 381.30 464.60 Q 382.30 463.86 382.04 463.54 Q 382.95 463.11 382.78 462.50 Q 381.82 458.92 383.09 458.21 Q 386.34 450.72 387.26 444.03 A 1.86 1.86 0.0 0 0 385.78 441.95 Q 383.23 441.45 383.39 441.98 Q 377.19 438.45 371.03 434.73 Q 366.04 431.72 362.01 428.07 Q 357.79 424.26 353.84 420.32 C 351.85 417.52 349.65 414.95 348.04 412.04 Q 339.19 396.12 332.19 379.29 Q 331.41 377.41 328.91 375.24 Q 328.52 374.90 328.40 374.39 Q 327.75 371.69 327.18 368.97 C 326.32 364.84 324.86 361.20 323.33 357.40 Q 322.56 356.12 322.38 354.40 Q 322.34 353.93 322.04 353.58 Q 320.37 351.59 320.12 348.96 Q 320.08 348.53 319.81 348.20 Q 318.86 347.07 317.95 345.94 Q 316.90 344.63 316.45 342.94 C 314.60 335.85 312.23 328.75 309.96 321.81 Q 308.17 316.34 305.64 311.20 C 305.12 310.15 303.83 308.66 303.52 307.02 Q 302.81 303.31 302.13 299.62 C 301.40 295.66 299.65 292.05 298.37 288.18 Q 293.57 273.69 288.79 259.19 C 286.53 252.32 282.30 247.53 276.82 241.76 Q 275.83 240.72 274.34 239.98 Q 272.94 239.30 271.60 238.49 C 270.06 237.56 268.87 237.68 267.19 237.42 C 265.41 237.15 263.46 236.24 261.49 235.83 Q 260.15 235.54 259.20 234.95 Q 253.78 231.57 248.61 227.79 C 246.27 226.08 244.18 223.11 242.41 220.77 Q 241.00 218.89 238.48 218.74 A 1.02 1.00 74.3 0 1 237.71 218.30 L 236.77 216.86 Q 244.66 213.41 251.82 208.61 Q 252.23 208.34 252.32 207.84 L 252.67 205.89 L 252.73 208.11 Q 252.75 208.65 253.29 208.57 L 253.54 208.53 A 0.50 0.49 -89.9 0 0 253.96 208.10 Q 254.24 205.81 254.90 203.57 Q 255.52 201.47 257.31 199.82 C 263.09 194.46 270.53 193.15 278.81 195.08 Q 279.49 195.24 279.75 194.59 L 279.89 194.25 A 0.42 0.42 0.0 0 0 279.58 193.69 C 271.25 191.99 260.19 193.30 255.03 200.87 A 1.09 1.09 0.0 0 1 253.05 200.44 C 251.99 194.26 257.48 186.81 261.27 182.35 C 264.20 178.90 279.09 182.23 283.18 183.09 Q 283.68 183.20 283.85 182.71 L 283.94 182.45 Q 284.05 182.13 283.74 181.99 L 282.18 181.33 Q 281.65 181.11 281.39 180.59 C 277.13 171.87 276.01 166.30 264.16 168.61 C 261.55 169.12 259.50 168.88 258.26 166.49 A 1.27 1.27 0.0 0 1 258.16 165.57 C 258.95 162.63 265.75 159.89 268.61 158.78 C 272.82 157.15 277.37 159.88 281.04 161.67 C 286.38 164.27 291.33 171.14 293.13 176.68 Q 298.15 192.09 300.11 196.38 Q 307.02 211.58 312.77 227.22 Q 312.86 227.45 313.10 227.36 L 313.40 227.25 A 0.45 0.45 0.0 0 0 313.66 226.67 L 301.40 195.30 A 0.35 0.35 0.0 0 1 301.93 194.88 Q 304.70 196.77 308.08 197.05 A 1.63 1.56 66.0 0 1 308.96 197.41 Q 310.80 198.91 311.52 198.19 Z M 266.00 219.27 L 264.74 218.50 A 0.48 0.48 0.0 0 0 264.04 218.74 L 263.92 219.04 Q 263.67 219.69 264.29 220.01 Q 265.15 220.45 266.12 220.39 Q 266.57 220.36 266.96 220.61 Q 269.96 222.55 270.01 226.12 A 1.42 1.41 84.8 0 1 268.83 227.54 C 263.74 228.42 261.88 226.61 257.76 224.67 Q 255.82 223.76 255.67 222.13 C 255.22 217.24 254.07 204.12 262.79 203.35 Q 267.90 202.90 275.02 203.07 A 0.64 0.63 -86.0 0 0 275.66 202.51 L 275.69 202.23 Q 275.73 201.87 275.36 201.86 C 269.78 201.75 261.12 201.00 257.84 204.47 C 253.68 208.85 253.99 214.32 254.25 219.75 C 254.36 221.98 254.78 223.78 256.83 225.05 C 260.34 227.22 265.55 230.19 269.52 228.09 Q 270.67 227.48 271.16 228.69 L 274.70 237.46 Q 274.76 237.62 274.92 237.56 L 275.17 237.46 Q 275.40 237.37 275.31 237.14 C 274.22 234.44 273.60 232.58 272.11 229.09 C 270.71 225.82 270.66 223.10 268.07 219.82 Q 267.70 219.36 268.24 219.12 Q 269.89 218.36 270.11 216.43 A 0.35 0.35 0.0 0 0 269.44 216.26 L 268.84 217.71 A 0.74 0.73 -1.4 0 1 268.47 218.09 C 266.91 218.74 266.17 216.80 265.97 215.61 Q 265.94 215.44 265.76 215.43 Q 265.63 215.42 265.50 215.41 A 0.34 0.34 0.0 0 0 265.14 215.76 Q 265.19 217.50 266.39 218.74 Q 268.13 220.56 266.00 219.27 Z"/><path fill="#ffe8e7" d=" M 429.96 181.45 C 429.39 177.74 429.91 173.67 432.17 170.70 C 436.80 164.64 440.74 160.65 448.22 159.60 Q 459.65 157.98 467.98 164.81 C 478.41 173.35 472.77 185.57 463.71 192.20 C 458.92 195.71 447.53 194.50 442.23 192.67 C 437.85 191.17 435.10 188.25 431.96 185.07 Q 430.25 183.35 429.96 181.45 Z"/><path fill="#e97f85" d=" M 266.00 219.27 Q 268.13 220.56 266.39 218.74 Q 265.19 217.50 265.14 215.76 A 0.34 0.34 0.0 0 1 265.50 215.41 Q 265.63 215.42 265.76 215.43 Q 265.94 215.44 265.97 215.61 C 266.17 216.80 266.91 218.74 268.47 218.09 A 0.74 0.73 -1.4 0 0 268.84 217.71 L 269.44 216.26 A 0.35 0.35 0.0 0 1 270.11 216.43 Q 269.89 218.36 268.24 219.12 Q 267.70 219.36 268.07 219.82 C 270.66 223.10 270.71 225.82 272.11 229.09 C 273.60 232.58 274.22 234.44 275.31 237.14 Q 275.40 237.37 275.17 237.46 L 274.92 237.56 Q 274.76 237.62 274.70 237.46 L 271.16 228.69 Q 270.67 227.48 269.52 228.09 C 265.55 230.19 260.34 227.22 256.83 225.05 C 254.78 223.78 254.36 221.98 254.25 219.75 C 253.99 214.32 253.68 208.85 257.84 204.47 C 261.12 201.00 269.78 201.75 275.36 201.86 Q 275.73 201.87 275.69 202.23 L 275.66 202.51 A 0.64 0.63 -86.0 0 1 275.02 203.07 Q 267.90 202.90 262.79 203.35 C 254.07 204.12 255.22 217.24 255.67 222.13 Q 255.82 223.76 257.76 224.67 C 261.88 226.61 263.74 228.42 268.83 227.54 A 1.42 1.41 84.8 0 0 270.01 226.12 Q 269.96 222.55 266.96 220.61 Q 266.57 220.36 266.12 220.39 Q 265.15 220.45 264.29 220.01 Q 263.67 219.69 263.92 219.04 L 264.04 218.74 A 0.48 0.48 0.0 0 1 264.74 218.50 L 266.00 219.27 Z"/><path fill="#f2bd55" d=" M 332.78 210.93 Q 340.11 211.92 345.50 213.16 Q 347.08 213.52 349.46 214.43 Q 351.37 215.15 353.46 215.49 Q 356.88 216.05 360.23 217.02 C 388.92 225.40 431.58 242.27 439.33 274.07 C 440.39 278.41 441.56 282.55 442.41 287.11 Q 442.90 289.73 443.59 292.30 C 445.21 301.13 447.36 311.37 447.24 320.34 Q 447.23 321.59 448.10 320.69 Q 451.51 317.12 455.11 313.09 C 464.79 302.26 474.89 292.87 486.94 284.69 Q 487.29 284.45 487.54 284.80 L 487.68 285.03 Q 487.78 285.17 487.64 285.27 C 472.97 294.99 460.14 307.91 449.09 321.52 C 447.42 323.58 448.28 326.40 448.54 328.80 A 0.71 0.71 0.0 0 1 447.76 329.58 L 444.22 329.22 Q 423.56 330.76 403.13 329.88 L 388.37 329.85 A 1.77 1.77 0.0 0 1 386.60 328.04 Q 386.91 313.57 387.88 299.48 Q 389.08 282.10 390.52 264.74 Q 390.67 262.96 390.65 261.18 Q 390.65 261.12 390.58 261.12 Q 390.55 261.12 390.53 261.12 Q 390.41 261.12 390.40 261.24 C 388.89 272.60 388.29 284.04 387.71 295.47 C 387.30 303.56 386.44 312.85 386.09 321.57 C 386.01 323.56 385.44 326.65 385.74 329.30 Q 386.09 332.33 385.84 334.20 Q 384.96 340.63 384.63 347.32 Q 383.75 346.39 383.08 345.17 Q 382.24 343.65 381.71 342.95 Q 376.59 336.25 371.55 329.50 Q 370.87 328.60 370.29 327.64 Q 366.30 321.00 362.08 314.49 C 360.70 312.35 358.27 309.75 357.07 307.18 Q 355.27 303.35 353.86 301.17 Q 334.05 270.69 317.88 238.13 Q 317.18 236.72 315.59 231.33 Q 315.45 230.85 315.54 230.36 L 316.76 223.85 A 1.04 1.04 0.0 0 1 317.09 223.28 Q 317.97 222.51 318.92 221.91 C 322.80 219.45 324.25 215.22 327.42 212.07 A 1.17 1.13 17.1 0 1 328.05 211.75 L 332.78 210.93 Z"/><path fill="#f2bd55" d=" M 236.77 216.86 L 237.71 218.30 A 1.02 1.00 74.3 0 0 238.48 218.74 Q 241.00 218.89 242.41 220.77 C 244.18 223.11 246.27 226.08 248.61 227.79 Q 253.78 231.57 259.20 234.95 Q 260.15 235.54 261.49 235.83 C 263.46 236.24 265.41 237.15 267.19 237.42 C 268.87 237.68 270.06 237.56 271.60 238.49 Q 272.94 239.30 274.34 239.98 Q 275.83 240.72 276.82 241.76 C 282.30 247.53 286.53 252.32 288.79 259.19 Q 293.57 273.69 298.37 288.18 C 299.65 292.05 301.40 295.66 302.13 299.62 Q 302.81 303.31 303.52 307.02 C 303.83 308.66 305.12 310.15 305.64 311.20 Q 308.17 316.34 309.96 321.81 C 312.23 328.75 314.60 335.85 316.45 342.94 Q 316.90 344.63 317.95 345.94 Q 318.86 347.07 319.81 348.20 Q 320.08 348.53 320.12 348.96 Q 320.37 351.59 322.04 353.58 Q 322.34 353.93 322.38 354.40 Q 322.56 356.12 323.33 357.40 L 327.74 374.96 Q 327.87 375.46 327.38 375.61 L 318.38 378.40 Q 308.70 381.48 299.14 382.67 C 298.19 382.79 297.49 383.25 296.60 383.35 C 289.82 384.13 282.45 385.74 276.44 386.52 Q 261.92 388.40 253.50 389.36 C 252.34 389.49 251.03 389.18 249.83 389.29 C 240.21 390.20 230.49 390.73 221.75 385.87 C 217.97 383.77 216.21 378.03 215.34 374.08 C 213.10 363.89 211.41 353.57 208.90 343.45 C 209.54 336.36 207.50 329.45 206.17 322.54 Q 205.20 317.49 204.45 312.40 C 204.01 309.42 203.13 306.11 202.71 302.86 Q 202.16 298.55 201.63 295.70 Q 200.29 288.50 200.06 280.57 A 0.26 0.26 0.0 0 0 199.62 280.39 Q 199.13 280.85 199.22 281.77 Q 199.46 284.13 199.77 286.48 Q 201.06 296.38 202.75 306.23 Q 203.78 312.21 204.37 318.25 C 204.67 321.24 205.96 325.09 206.41 328.64 Q 207.11 334.15 208.38 339.64 A 1.33 1.33 0.0 0 1 206.74 341.22 C 205.01 340.76 203.15 341.51 201.74 341.60 Q 189.82 342.36 177.91 343.17 C 174.77 343.38 170.85 342.69 168.25 342.99 Q 161.02 343.84 152.50 343.56 Q 151.80 343.54 151.83 344.71 Q 152.14 343.00 150.75 343.21 Q 148.87 343.49 147.18 343.99 A 0.85 0.85 0.0 0 1 146.09 343.06 Q 148.86 322.59 153.43 302.24 Q 157.44 284.40 165.21 267.92 Q 166.76 264.61 169.59 260.67 C 171.80 257.58 173.80 254.19 176.23 251.49 C 184.61 242.18 193.11 235.38 205.52 230.04 Q 221.08 223.35 236.77 216.86 Z"/><path fill="#e97f85" d=" M 403.13 329.88 Q 402.75 338.59 402.60 347.37 C 402.49 354.04 403.57 360.82 404.10 367.65 C 404.29 370.20 405.01 372.74 406.08 374.76 Q 406.72 375.95 406.65 377.16 Q 406.63 377.63 406.78 378.07 Q 407.17 379.22 407.06 380.45 A 0.35 0.35 0.0 0 1 406.44 380.63 Q 393.93 364.91 384.63 347.32 Q 384.96 340.63 385.84 334.20 Q 386.09 332.33 385.74 329.30 C 385.44 326.65 386.01 323.56 386.09 321.57 C 386.44 312.85 387.30 303.56 387.71 295.47 C 388.29 284.04 388.89 272.60 390.40 261.24 Q 390.41 261.12 390.53 261.12 Q 390.55 261.12 390.58 261.12 Q 390.65 261.12 390.65 261.18 Q 390.67 262.96 390.52 264.74 Q 389.08 282.10 387.88 299.48 Q 386.91 313.57 386.60 328.04 A 1.77 1.77 0.0 0 0 388.37 329.85 L 403.13 329.88 Z"/><path fill="#ffffff" d=" M 439.73 378.96 L 443.35 330.07 Q 443.39 329.60 443.81 329.41 L 444.22 329.22 L 447.76 329.58 A 0.71 0.71 0.0 0 0 448.54 328.80 C 448.28 326.40 447.42 323.58 449.09 321.52 C 460.14 307.91 472.97 294.99 487.64 285.27 Q 487.78 285.17 487.68 285.03 L 487.54 284.80 Q 487.29 284.45 486.94 284.69 C 474.89 292.87 464.79 302.26 455.11 313.09 Q 451.51 317.12 448.10 320.69 Q 447.23 321.59 447.24 320.34 C 447.36 311.37 445.21 301.13 443.59 292.30 L 443.68 291.20 Q 443.72 290.70 444.11 290.38 C 444.82 289.78 445.26 288.99 445.86 288.42 C 451.58 282.98 457.10 277.55 464.12 273.84 C 469.66 270.91 474.89 268.27 480.72 267.28 Q 482.67 266.95 487.22 265.86 C 495.69 263.82 506.14 267.80 508.91 276.73 Q 509.59 278.89 509.03 281.79 C 507.90 287.71 507.08 291.67 503.32 296.68 C 496.85 305.29 491.52 310.04 485.78 316.99 C 483.47 319.78 480.22 322.93 477.86 326.30 Q 476.67 328.01 474.50 330.60 C 472.91 332.51 471.77 334.75 470.19 336.51 Q 462.12 345.51 456.27 356.04 C 453.35 361.30 449.33 365.93 446.47 371.46 Q 445.29 373.73 439.73 378.96 Z"/><path fill="#e97f85" d=" M 208.90 343.45 Q 208.66 341.27 206.75 341.72 Q 193.79 344.76 180.59 346.36 Q 176.70 346.84 170.49 348.04 Q 164.08 349.28 160.25 348.96 Q 155.34 348.54 152.39 349.56 Q 152.05 349.68 151.99 349.33 L 151.75 348.04 L 151.83 344.71 Q 151.80 343.54 152.50 343.56 Q 161.02 343.84 168.25 342.99 C 170.85 342.69 174.77 343.38 177.91 343.17 Q 189.82 342.36 201.74 341.60 C 203.15 341.51 205.01 340.76 206.74 341.22 A 1.33 1.33 0.0 0 0 208.38 339.64 Q 207.11 334.15 206.41 328.64 C 205.96 325.09 204.67 321.24 204.37 318.25 Q 203.78 312.21 202.75 306.23 Q 201.06 296.38 199.77 286.48 Q 199.46 284.13 199.22 281.77 Q 199.13 280.85 199.62 280.39 A 0.26 0.26 0.0 0 1 200.06 280.57 Q 200.29 288.50 201.63 295.70 Q 202.16 298.55 202.71 302.86 C 203.13 306.11 204.01 309.42 204.45 312.40 Q 205.20 317.49 206.17 322.54 C 207.50 329.45 209.54 336.36 208.90 343.45 Z"/><path fill="#ee9fa5" d=" M 208.90 343.45 C 211.41 353.57 213.10 363.89 215.34 374.08 C 216.21 378.03 217.97 383.77 221.75 385.87 C 230.49 390.73 240.21 390.20 249.83 389.29 C 251.03 389.18 252.34 389.49 253.50 389.36 Q 261.92 388.40 276.44 386.52 C 282.45 385.74 289.82 384.13 296.60 383.35 C 297.49 383.25 298.19 382.79 299.14 382.67 Q 308.70 381.48 318.38 378.40 Q 322.02 384.53 324.18 391.44 C 327.43 401.84 333.39 411.36 337.91 421.23 C 338.39 422.28 339.37 423.44 339.83 424.70 Q 340.02 425.20 339.64 425.58 Q 339.20 426.01 339.06 426.52 Q 332.23 429.02 325.88 432.55 Q 323.63 433.80 320.86 434.74 Q 318.23 435.63 315.74 436.80 Q 315.19 437.06 314.27 437.12 Q 313.79 437.15 313.39 437.41 C 311.63 438.61 309.55 438.88 307.82 439.89 Q 305.17 441.45 302.16 442.09 Q 299.81 442.60 298.05 443.57 C 295.05 445.23 291.88 446.06 288.95 447.79 C 286.14 449.46 283.92 449.41 280.98 450.72 C 276.84 452.57 272.11 452.35 267.84 453.86 Q 258.55 457.15 248.82 458.60 C 242.47 459.55 232.08 461.67 223.37 461.36 C 221.05 461.27 219.23 462.00 217.04 462.54 Q 217.09 461.73 216.91 461.05 Q 216.77 460.55 216.26 460.44 C 195.72 455.98 179.57 441.32 168.67 423.82 Q 159.88 409.71 156.15 392.15 Q 154.77 385.28 153.61 379.00 Q 151.90 369.80 151.75 348.04 L 151.99 349.33 Q 152.05 349.68 152.39 349.56 Q 155.34 348.54 160.25 348.96 Q 164.08 349.28 170.49 348.04 Q 176.70 346.84 180.59 346.36 Q 193.79 344.76 206.75 341.72 Q 208.66 341.27 208.90 343.45 Z"/><path fill="#ffffff" d=" M 156.15 392.15 Q 159.88 409.71 168.67 423.82 C 179.57 441.32 195.72 455.98 216.26 460.44 Q 216.77 460.55 216.91 461.05 Q 217.09 461.73 217.04 462.54 L 217.25 470.27 Q 216.76 470.83 216.50 470.81 Q 203.19 469.83 190.57 469.13 C 164.56 431.26 135.46 396.24 102.26 364.57 Q 101.73 364.06 101.57 364.78 L 101.48 365.18 A 0.13 0.12 -63.8 0 0 101.52 365.31 Q 148.17 409.98 184.13 462.11 Q 187.16 466.50 188.31 467.93 Q 188.24 468.12 188.17 468.32 Q 188.01 468.71 187.58 468.66 L 168.78 466.28 C 153.57 453.61 131.87 442.63 117.35 434.57 Q 114.24 432.84 111.60 430.83 C 104.41 425.32 99.32 421.80 104.15 411.84 Q 105.26 409.54 106.24 407.33 Q 106.81 404.96 108.51 402.96 C 110.54 400.58 110.30 399.65 109.32 396.95 C 108.00 393.32 107.55 391.85 104.45 389.29 C 99.78 385.43 95.26 381.02 90.35 377.52 C 88.53 376.22 87.18 375.55 86.17 373.34 Q 85.00 370.75 83.49 368.72 A 2.92 2.92 0.0 0 1 83.11 365.91 C 84.16 363.20 84.19 360.29 85.84 357.92 Q 87.48 355.56 89.47 353.47 C 93.86 348.85 101.68 348.87 107.32 350.63 C 111.00 351.78 114.20 354.73 117.70 357.11 C 123.00 360.71 126.03 366.95 129.92 371.83 Q 134.32 377.34 137.75 383.53 C 139.17 386.10 145.50 388.69 147.99 389.61 Q 150.88 390.69 156.15 392.15 Z"/><path fill="#e97f85" d=" M 323.33 357.40 C 324.86 361.20 326.32 364.84 327.18 368.97 Q 327.75 371.69 328.40 374.39 Q 328.52 374.90 328.91 375.24 Q 331.41 377.41 332.19 379.29 Q 339.19 396.12 348.04 412.04 C 349.65 414.95 351.85 417.52 353.84 420.32 Q 353.40 421.79 351.71 421.28 C 350.00 420.76 348.92 420.74 347.50 421.47 Q 344.60 422.96 341.71 425.05 Q 339.76 425.71 339.06 426.52 Q 339.20 426.01 339.64 425.58 Q 340.02 425.20 339.83 424.70 C 339.37 423.44 338.39 422.28 337.91 421.23 C 333.39 411.36 327.43 401.84 324.18 391.44 Q 322.02 384.53 318.38 378.40 L 327.38 375.61 Q 327.87 375.46 327.74 374.96 L 323.33 357.40 Z"/><path fill="#7690d9" d=" M 190.57 469.13 Q 189.09 468.83 188.31 467.93 Q 187.16 466.50 184.13 462.11 Q 148.17 409.98 101.52 365.31 A 0.13 0.12 -63.8 0 1 101.48 365.18 L 101.57 364.78 Q 101.73 364.06 102.26 364.57 C 135.46 396.24 164.56 431.26 190.57 469.13 Z"/><path fill="#7690d9" d=" M 499.47 364.77 Q 509.82 364.81 516.54 368.67 C 529.88 376.32 523.36 393.79 515.51 402.77 C 507.78 411.61 498.18 417.34 487.81 422.55 C 472.84 430.08 459.06 436.59 443.44 445.91 Q 434.05 451.52 422.29 462.04 Q 417.29 461.85 411.89 461.80 Q 411.75 461.80 406.62 461.57 Q 402.81 461.40 399.01 462.10 Q 398.65 462.17 398.55 461.99 Q 398.44 461.81 398.42 461.44 L 406.63 442.59 Q 409.44 440.80 412.57 439.16 C 423.18 433.62 428.71 424.92 432.68 413.94 Q 434.04 410.17 436.68 399.44 Q 452.99 380.80 473.09 370.60 Q 485.48 364.31 499.47 364.77 Z"/><path fill="#7690d9" d=" M 106.24 407.33 Q 105.26 409.54 104.15 411.84 C 99.32 421.80 104.41 425.32 111.60 430.83 Q 114.24 432.84 117.35 434.57 C 131.87 442.63 153.57 453.61 168.78 466.28 L 160.00 465.83 Q 139.71 450.72 115.91 455.27 C 104.16 457.51 95.77 464.48 82.98 461.86 C 73.76 459.97 75.73 451.46 70.52 446.39 Q 66.63 442.61 60.99 442.58 Q 51.13 442.53 41.25 442.36 C 34.30 442.23 23.81 439.61 23.95 430.74 C 24.05 423.54 33.06 417.22 38.69 414.26 C 47.62 409.57 57.08 411.73 66.50 412.39 Q 74.40 412.94 78.82 408.22 Q 86.81 400.30 97.80 403.49 C 100.59 404.30 103.41 405.94 106.24 407.33 Z"/><path fill="#f2a356" d=" M 353.84 420.32 Q 357.79 424.26 362.01 428.07 Q 366.04 431.72 371.03 434.73 Q 377.19 438.45 383.39 441.98 L 383.09 458.21 Q 381.82 458.92 382.78 462.50 Q 382.95 463.11 382.04 463.54 Q 381.77 463.36 381.68 463.10 Q 381.54 462.72 381.14 462.63 C 379.11 462.22 377.79 460.90 375.88 460.37 Q 373.07 459.61 371.69 458.35 Q 363.62 451.00 355.34 443.91 Q 347.38 437.10 341.71 425.05 Q 344.60 422.96 347.50 421.47 C 348.92 420.74 350.00 420.76 351.71 421.28 Q 353.40 421.79 353.84 420.32 Z"/><path fill="#f2bd55" d=" M 341.71 425.05 Q 347.38 437.10 355.34 443.91 Q 363.62 451.00 371.69 458.35 Q 373.07 459.61 375.88 460.37 C 377.79 460.90 379.11 462.22 381.14 462.63 Q 381.54 462.72 381.68 463.10 Q 381.77 463.36 382.04 463.54 Q 382.30 463.86 381.30 464.60 Q 367.27 468.24 352.97 470.85 Q 341.08 473.03 324.75 473.72 Q 286.02 475.35 251.66 472.36 Q 234.76 470.89 217.79 470.58 Q 217.61 470.58 217.49 470.48 Q 217.37 470.39 217.25 470.27 L 217.04 462.54 C 219.23 462.00 221.05 461.27 223.37 461.36 C 232.08 461.67 242.47 459.55 248.82 458.60 Q 258.55 457.15 267.84 453.86 C 272.11 452.35 276.84 452.57 280.98 450.72 C 283.92 449.41 286.14 449.46 288.95 447.79 C 291.88 446.06 295.05 445.23 298.05 443.57 Q 299.81 442.60 302.16 442.09 Q 305.17 441.45 307.82 439.89 C 309.55 438.88 311.63 438.61 313.39 437.41 Q 313.79 437.15 314.27 437.12 Q 315.19 437.06 315.74 436.80 Q 318.23 435.63 320.86 434.74 Q 323.63 433.80 325.88 432.55 Q 332.23 429.02 339.06 426.52 Q 339.76 425.71 341.71 425.05 Z"/><path fill="#ffffff" d=" M 383.09 458.21 L 383.39 441.98 Q 383.23 441.45 385.78 441.95 A 1.86 1.86 0.0 0 1 387.26 444.03 Q 386.34 450.72 383.09 458.21 Z"/><path fill="#ffffff" d=" M 406.63 442.59 L 398.42 461.44 L 398.03 462.02 Q 397.78 462.41 397.31 462.45 L 384.37 463.60 L 389.13 443.48 A 0.61 0.61 0.0 0 1 389.81 443.02 C 394.98 443.80 401.60 443.80 406.10 442.00 Q 406.47 441.85 406.62 442.23 Q 406.68 442.37 406.63 442.59 Z"/><path fill="#dee5ec" d=" M 398.42 461.44 Q 398.44 461.81 398.55 461.99 Q 398.65 462.17 399.01 462.10 Q 402.81 461.40 406.62 461.57 Q 411.75 461.80 411.89 461.80 Q 417.29 461.85 422.29 462.04 Q 426.61 462.79 430.48 463.18 Q 439.16 464.03 447.79 465.25 C 450.36 465.61 452.92 466.49 455.52 467.12 C 458.02 467.73 459.09 471.55 456.42 472.66 C 445.57 477.16 433.58 470.99 422.24 472.51 Q 419.20 472.92 418.01 475.88 Q 417.82 476.34 418.08 476.76 C 422.19 483.59 438.35 490.67 437.05 498.75 C 436.57 501.74 430.57 504.18 428.00 505.01 C 423.53 506.46 415.24 505.93 409.35 505.24 Q 399.49 504.08 389.62 503.05 C 367.41 500.72 344.72 502.47 323.89 504.21 Q 317.90 504.72 312.64 505.83 C 303.42 507.78 294.75 509.62 284.92 511.28 Q 277.36 512.55 269.84 513.99 C 250.87 517.61 227.92 517.13 210.62 507.63 C 204.65 504.35 202.62 500.28 199.39 494.38 C 195.87 487.97 184.97 485.93 177.24 485.01 Q 162.42 483.25 147.50 482.86 C 139.92 482.66 117.02 482.47 113.20 476.11 C 109.23 469.51 119.31 465.82 123.76 465.25 Q 130.35 464.41 137.00 464.04 Q 145.49 463.57 160.00 465.83 L 168.78 466.28 L 187.58 468.66 Q 188.01 468.71 188.17 468.32 Q 188.24 468.12 188.31 467.93 Q 189.09 468.83 190.57 469.13 Q 203.19 469.83 216.50 470.81 Q 216.76 470.83 217.25 470.27 Q 217.37 470.39 217.49 470.48 Q 217.61 470.58 217.79 470.58 Q 234.76 470.89 251.66 472.36 Q 286.02 475.35 324.75 473.72 Q 341.08 473.03 352.97 470.85 Q 367.27 468.24 381.30 464.60 Q 383.59 464.61 384.37 463.60 L 397.31 462.45 Q 397.78 462.41 398.03 462.02 L 398.42 461.44 Z"/><path fill="#dee5ec" d=" M 441.87 477.85 C 449.97 477.29 457.49 478.01 465.79 479.51 C 469.34 480.15 472.09 481.38 475.14 483.03 A 1.74 1.74 0.0 0 1 475.85 485.38 Q 474.32 488.23 470.74 488.21 Q 457.22 488.12 444.33 483.98 Q 441.54 483.08 440.35 480.37 A 1.80 1.80 0.0 0 1 441.87 477.85 Z"/><path fill="#dee5ec" d=" M 178.75 500.87 C 174.21 500.96 167.54 500.53 164.26 499.95 Q 160.67 499.31 159.90 495.63 A 1.65 1.65 0.0 0 1 161.24 493.66 Q 167.03 492.65 173.08 492.76 C 176.11 492.82 179.81 493.51 183.25 493.68 Q 185.25 493.78 185.54 495.69 C 186.03 498.99 181.34 500.82 178.75 500.87 Z"/></svg>