<?xml version="1.0" encoding="UTF-8" standalone="no"?>
<!DOCTYPE svg PUBLIC "-//W3C//DTD SVG 1.1//EN" "http://www.w3.org/Graphics/SVG/1.1/DTD/svg11.dtd">
<svg xmlns="http://www.w3.org/2000/svg" version="1.1" viewBox="0.00 0.00 501.00 501.00">
<g stroke-width="2.00" fill="none" stroke-linecap="butt">
<path stroke="#808080" vector-effect="non-scaling-stroke" d="
  M 209.78 391.78
  C 210.22 412.90 217.96 432.48 234.42 445.75
  Q 240.25 450.44 245.76 452.71
  C 259.48 458.36 278.21 454.35 291.70 448.45
  Q 312.73 439.27 333.00 421.00
  Q 356.18 400.11 371.01 382.27
  C 406.62 339.44 433.83 288.51 453.52 236.27
  C 463.49 209.81 470.94 184.06 474.04 157.23
  Q 475.52 144.48 475.23 137.50
  Q 474.24 113.08 457.40 97.86
  C 445.29 86.91 428.07 82.28 411.86 82.65
  Q 409.71 82.70 407.96 83.88
  Q 395.64 92.20 387.36 106.33
  Q 369.38 136.98 365.76 172.60
  A 0.76 0.74 -72.4 0 0 366.13 173.33
  L 419.76 204.46
  A 0.91 0.90 -72.4 0 1 420.21 205.34
  Q 417.55 232.44 407.54 257.77
  Q 388.73 305.35 357.67 345.96
  C 347.27 359.56 319.68 392.79 300.82 390.10
  C 287.28 388.17 286.81 367.59 287.44 356.74
  C 290.04 312.37 296.01 268.09 301.37 223.99
  Q 306.57 181.24 307.92 157.25
  C 309.28 132.99 309.44 107.05 303.23 83.50
  Q 302.93 82.35 301.74 82.48
  Q 274.89 85.53 249.27 91.32
  Q 232.09 95.20 213.61 103.21
  A 0.59 0.59 0.0 0 0 213.28 103.92
  Q 225.27 143.53 224.33 185.00
  Q 223.82 207.65 222.20 230.25
  Q 218.41 283.18 213.04 335.98
  Q 212.88 337.54 212.20 338.45
  Q 198.01 357.50 180.13 373.14
  C 172.31 379.98 157.78 391.98 147.06 390.04
  C 129.86 386.94 132.00 355.46 132.10 342.59
  Q 132.18 332.54 132.62 322.50
  C 135.03 267.94 140.12 213.59 142.04 159.01
  Q 142.69 140.49 141.70 122.00
  C 141.02 109.26 139.21 94.68 132.81 83.46
  A 1.11 1.08 74.7 0 0 131.86 82.90
  Q 99.04 82.90 66.81 85.33
  Q 59.74 85.86 51.26 87.04
  C 43.25 88.16 35.46 88.90 27.46 91.12
  Q 26.98 91.25 26.83 91.72
  C 25.82 94.85 24.97 98.36 26.92 101.37
  Q 37.62 117.92 48.27 134.51
  C 54.33 143.96 55.37 157.11 56.31 168.01
  Q 59.03 199.20 58.30 230.50
  Q 56.56 304.58 54.99 378.66
  C 54.70 392.21 55.40 403.13 60.26 415.77
  Q 68.49 437.14 87.53 448.49
  C 121.35 468.65 163.03 440.68 186.28 416.78
  Q 198.06 404.67 208.00 391.21
  Q 209.72 388.88 209.78 391.78"
/>
<path stroke="#808080" vector-effect="non-scaling-stroke" d="
  M 432.2011 453.0800
  A 23.55 21.72 89.9 0 0 453.8800 429.4921
  A 23.55 21.72 89.9 0 0 432.1189 405.9800
  A 23.55 21.72 89.9 0 0 410.4400 429.5679
  A 23.55 21.72 89.9 0 0 432.2011 453.0800"
/>
</g>
<path fill="#000000" d="
  M 122.07 0.00
  L 379.00 0.00
  Q 444.77 3.67 480.43 56.57
  Q 494.15 76.92 498.84 102.51
  Q 500.00 108.86 500.00 117.58
  Q 500.00 250.08 500.00 382.57
  Q 500.00 391.82 498.81 398.35
  C 489.56 449.07 448.31 491.22 396.65 499.06
  Q 390.50 500.00 381.29 500.00
  Q 250.16 500.01 119.04 499.99
  Q 109.32 499.98 102.56 498.78
  Q 70.16 493.01 45.50 472.24
  Q 2.27 435.82 0.00 377.95
  L 0.00 122.40
  C 1.62 72.89 31.14 29.35 76.21 9.97
  Q 96.68 1.17 122.07 0.00
  Z
  M 209.78 391.78
  C 210.22 412.90 217.96 432.48 234.42 445.75
  Q 240.25 450.44 245.76 452.71
  C 259.48 458.36 278.21 454.35 291.70 448.45
  Q 312.73 439.27 333.00 421.00
  Q 356.18 400.11 371.01 382.27
  C 406.62 339.44 433.83 288.51 453.52 236.27
  C 463.49 209.81 470.94 184.06 474.04 157.23
  Q 475.52 144.48 475.23 137.50
  Q 474.24 113.08 457.40 97.86
  C 445.29 86.91 428.07 82.28 411.86 82.65
  Q 409.71 82.70 407.96 83.88
  Q 395.64 92.20 387.36 106.33
  Q 369.38 136.98 365.76 172.60
  A 0.76 0.74 -72.4 0 0 366.13 173.33
  L 419.76 204.46
  A 0.91 0.90 -72.4 0 1 420.21 205.34
  Q 417.55 232.44 407.54 257.77
  Q 388.73 305.35 357.67 345.96
  C 347.27 359.56 319.68 392.79 300.82 390.10
  C 287.28 388.17 286.81 367.59 287.44 356.74
  C 290.04 312.37 296.01 268.09 301.37 223.99
  Q 306.57 181.24 307.92 157.25
  C 309.28 132.99 309.44 107.05 303.23 83.50
  Q 302.93 82.35 301.74 82.48
  Q 274.89 85.53 249.27 91.32
  Q 232.09 95.20 213.61 103.21
  A 0.59 0.59 0.0 0 0 213.28 103.92
  Q 225.27 143.53 224.33 185.00
  Q 223.82 207.65 222.20 230.25
  Q 218.41 283.18 213.04 335.98
  Q 212.88 337.54 212.20 338.45
  Q 198.01 357.50 180.13 373.14
  C 172.31 379.98 157.78 391.98 147.06 390.04
  C 129.86 386.94 132.00 355.46 132.10 342.59
  Q 132.18 332.54 132.62 322.50
  C 135.03 267.94 140.12 213.59 142.04 159.01
  Q 142.69 140.49 141.70 122.00
  C 141.02 109.26 139.21 94.68 132.81 83.46
  A 1.11 1.08 74.7 0 0 131.86 82.90
  Q 99.04 82.90 66.81 85.33
  Q 59.74 85.86 51.26 87.04
  C 43.25 88.16 35.46 88.90 27.46 91.12
  Q 26.98 91.25 26.83 91.72
  C 25.82 94.85 24.97 98.36 26.92 101.37
  Q 37.62 117.92 48.27 134.51
  C 54.33 143.96 55.37 157.11 56.31 168.01
  Q 59.03 199.20 58.30 230.50
  Q 56.56 304.58 54.99 378.66
  C 54.70 392.21 55.40 403.13 60.26 415.77
  Q 68.49 437.14 87.53 448.49
  C 121.35 468.65 163.03 440.68 186.28 416.78
  Q 198.06 404.67 208.00 391.21
  Q 209.72 388.88 209.78 391.78
  Z
  M 432.2011 453.0800
  A 23.55 21.72 89.9 0 0 453.8800 429.4921
  A 23.55 21.72 89.9 0 0 432.1189 405.9800
  A 23.55 21.72 89.9 0 0 410.4400 429.5679
  A 23.55 21.72 89.9 0 0 432.2011 453.0800
  Z"
/>
<path fill="#ffffff" d="
  M 209.78 391.78
  Q 209.72 388.88 208.00 391.21
  Q 198.06 404.67 186.28 416.78
  C 163.03 440.68 121.35 468.65 87.53 448.49
  Q 68.49 437.14 60.26 415.77
  C 55.40 403.13 54.70 392.21 54.99 378.66
  Q 56.56 304.58 58.30 230.50
  Q 59.03 199.20 56.31 168.01
  C 55.37 157.11 54.33 143.96 48.27 134.51
  Q 37.62 117.92 26.92 101.37
  C 24.97 98.36 25.82 94.85 26.83 91.72
  Q 26.98 91.25 27.46 91.12
  C 35.46 88.90 43.25 88.16 51.26 87.04
  Q 59.74 85.86 66.81 85.33
  Q 99.04 82.90 131.86 82.90
  A 1.11 1.08 74.7 0 1 132.81 83.46
  C 139.21 94.68 141.02 109.26 141.70 122.00
  Q 142.69 140.49 142.04 159.01
  C 140.12 213.59 135.03 267.94 132.62 322.50
  Q 132.18 332.54 132.10 342.59
  C 132.00 355.46 129.86 386.94 147.06 390.04
  C 157.78 391.98 172.31 379.98 180.13 373.14
  Q 198.01 357.50 212.20 338.45
  Q 212.88 337.54 213.04 335.98
  Q 218.41 283.18 222.20 230.25
  Q 223.82 207.65 224.33 185.00
  Q 225.27 143.53 213.28 103.92
  A 0.59 0.59 0.0 0 1 213.61 103.21
  Q 232.09 95.20 249.27 91.32
  Q 274.89 85.53 301.74 82.48
  Q 302.93 82.35 303.23 83.50
  C 309.44 107.05 309.28 132.99 307.92 157.25
  Q 306.57 181.24 301.37 223.99
  C 296.01 268.09 290.04 312.37 287.44 356.74
  C 286.81 367.59 287.28 388.17 300.82 390.10
  C 319.68 392.79 347.27 359.56 357.67 345.96
  Q 388.73 305.35 407.54 257.77
  Q 417.55 232.44 420.21 205.34
  A 0.91 0.90 -72.4 0 0 419.76 204.46
  L 366.13 173.33
  A 0.76 0.74 -72.4 0 1 365.76 172.60
  Q 369.38 136.98 387.36 106.33
  Q 395.64 92.20 407.96 83.88
  Q 409.71 82.70 411.86 82.65
  C 428.07 82.28 445.29 86.91 457.40 97.86
  Q 474.24 113.08 475.23 137.50
  Q 475.52 144.48 474.04 157.23
  C 470.94 184.06 463.49 209.81 453.52 236.27
  C 433.83 288.51 406.62 339.44 371.01 382.27
  Q 356.18 400.11 333.00 421.00
  Q 312.73 439.27 291.70 448.45
  C 278.21 454.35 259.48 458.36 245.76 452.71
  Q 240.25 450.44 234.42 445.75
  C 217.96 432.48 210.22 412.90 209.78 391.78
  Z"
/>
<ellipse fill="#ffffff" cx="0.00" cy="0.00" transform="translate(432.16,429.53) rotate(89.9)" rx="23.55" ry="21.72"/>
</svg>
