<?xml version="1.0" encoding="UTF-8" standalone="no"?>
<!DOCTYPE svg PUBLIC "-//W3C//DTD SVG 1.1//EN" "http://www.w3.org/Graphics/SVG/1.1/DTD/svg11.dtd">
<svg xmlns="http://www.w3.org/2000/svg" version="1.1" viewBox="0.00 0.00 271.00 271.00">
<path fill="#ffffff" d="
  M 112.68 213.87
  Q 112.64 211.47 111.23 213.41
  C 98.58 230.82 71.31 257.18 47.28 248.42
  C 37.19 244.74 28.94 235.34 25.84 225.00
  C 23.20 216.20 23.66 209.26 23.94 197.31
  Q 24.87 157.03 25.62 116.75
  Q 25.91 100.66 24.56 84.63
  C 24.01 78.06 23.12 71.00 19.46 65.30
  Q 13.21 55.54 7.25 46.42
  A 3.67 3.66 68.1 0 1 9.64 40.81
  C 28.45 37.31 48.25 36.60 67.34 36.82
  A 1.06 1.05 71.8 0 1 68.16 37.24
  C 71.42 41.44 72.50 50.09 72.81 55.27
  C 74.22 78.42 72.56 101.40 70.84 124.49
  Q 68.96 149.84 67.93 175.25
  Q 67.33 190.24 68.07 200.25
  C 68.34 203.88 70.25 209.37 73.09 211.59
  C 83.73 219.89 108.00 191.39 113.32 184.01
  Q 114.54 182.32 114.76 180.18
  Q 118.73 140.72 120.64 107.00
  C 121.70 88.23 120.72 68.25 115.05 49.95
  A 2.02 2.01 -19.0 0 1 116.27 47.46
  Q 139.98 38.64 165.23 36.62
  Q 165.72 36.59 165.88 37.05
  Q 167.27 41.07 167.81 45.89
  C 169.85 63.71 168.93 78.55 167.04 98.07
  Q 166.28 105.90 164.79 117.93
  Q 160.65 151.26 157.40 184.68
  C 156.74 191.40 156.02 201.01 158.45 207.36
  C 162.91 219.03 176.26 209.98 181.59 205.09
  C 200.85 187.45 214.97 163.97 225.02 139.79
  Q 231.73 123.63 233.54 107.02
  A 0.92 0.91 18.2 0 0 233.08 106.12
  L 202.89 88.63
  A 1.18 1.16 18.0 0 1 202.31 87.51
  Q 204.64 63.85 218.51 44.05
  Q 220.25 41.57 225.20 38.01
  Q 227.07 36.67 229.17 36.60
  C 244.54 36.11 256.90 43.42 262.91 57.32
  Q 264.71 61.47 264.50 69.75
  Q 264.21 81.06 261.76 92.11
  Q 256.29 116.72 246.19 139.83
  C 230.21 176.40 208.07 210.82 177.12 235.36
  C 164.89 245.06 143.78 256.18 128.75 246.07
  C 118.00 238.83 112.90 226.05 112.68 213.87
  Z"
/>
<ellipse fill="#ffffff" cx="0.00" cy="0.00" transform="translate(240.11,235.47) rotate(90.1)" rx="13.35" ry="12.28"/>
</svg>
